<?xml version="1.0" standalone="no"?>
<!DOCTYPE svg PUBLIC "-//W3C//DTD SVG 20010904//EN"
 "http://www.w3.org/TR/2001/REC-SVG-20010904/DTD/svg10.dtd">
<svg version="1.0" xmlns="http://www.w3.org/2000/svg"
 width="64.000000pt" height="64.000000pt" viewBox="0 0 64.000000 64.000000"
 preserveAspectRatio="xMidYMid meet">
<metadata>
Created by potrace 1.15, written by Peter Selinger 2001-2017
</metadata>
<g transform="translate(0.000000,64.000000) scale(0.100000,-0.100000)"
fill="#000000" stroke="none">
<path d="M0 320 l0 -320 25 0 25 0 0 320 0 320 -25 0 -25 0 0 -320z"/>
<path d="M590 320 l0 -320 25 0 25 0 0 320 0 320 -25 0 -25 0 0 -320z"/>
<path d="M150 455 l0 -105 170 0 170 0 0 105 0 105 -170 0 -170 0 0 -105z
m253 43 l4 -23 8 23 c5 14 15 22 31 22 23 0 24 -3 24 -60 0 -47 -3 -60 -15
-60 -9 0 -15 9 -16 23 l0 22 -9 -22 c-11 -27 -39 -31 -41 -5 -1 16 -2 16 -6
-1 -3 -10 -12 -17 -21 -15 -13 3 -16 13 -14 46 3 33 0 42 -12 42 -12 0 -16
-11 -16 -45 0 -38 -3 -45 -20 -45 -17 0 -20 7 -20 45 0 35 -4 45 -16 45 -11 0
-14 -5 -9 -17 3 -10 9 -30 12 -45 5 -24 2 -28 -16 -28 -12 0 -21 6 -21 15 0 8
-4 15 -9 15 -5 0 -11 -7 -15 -15 -3 -8 -13 -15 -22 -15 -13 0 -15 7 -11 33 14
84 15 85 126 86 96 1 100 1 104 -21z"/>
<path d="M170 161 l0 -81 50 0 51 0 -3 78 -3 77 -47 3 -48 3 0 -80z"/>
</g>
</svg>
