<?xml version="1.0" standalone="no"?>
<!DOCTYPE svg PUBLIC "-//W3C//DTD SVG 20010904//EN"
 "http://www.w3.org/TR/2001/REC-SVG-20010904/DTD/svg10.dtd">
<svg version="1.0" xmlns="http://www.w3.org/2000/svg"
 width="64.000000pt" height="64.000000pt" viewBox="0 0 64.000000 64.000000"
 preserveAspectRatio="xMidYMid meet">
<metadata>
Created by potrace 1.15, written by Peter Selinger 2001-2017
</metadata>
<g transform="translate(0.000000,64.000000) scale(0.100000,-0.100000)"
fill="#000000" stroke="none">
<path d="M0 528 l0 -113 67 0 68 0 3 -89 c2 -50 8 -96 14 -103 7 -9 43 -13
124 -13 l114 0 0 -40 0 -40 -109 0 -110 0 -27 -35 c-14 -19 -32 -35 -39 -35
-8 0 -23 16 -35 35 -15 24 -29 35 -46 35 -23 0 -24 -3 -24 -65 l0 -65 320 0
320 0 0 115 0 115 -29 0 c-24 0 -36 -10 -65 -50 -20 -28 -41 -48 -46 -45 -5 3
-24 26 -40 51 l-31 44 -133 0 c-113 0 -135 2 -140 16 -8 20 -8 298 0 318 5 14
36 16 245 16 l239 0 0 30 0 30 -320 0 -320 0 0 -112z"/>
</g>
</svg>
