<?xml version="1.0" standalone="no"?>
<!DOCTYPE svg PUBLIC "-//W3C//DTD SVG 20010904//EN"
 "http://www.w3.org/TR/2001/REC-SVG-20010904/DTD/svg10.dtd">
<svg version="1.0" xmlns="http://www.w3.org/2000/svg"
 width="64.000000pt" height="64.000000pt" viewBox="0 0 64.000000 64.000000"
 preserveAspectRatio="xMidYMid meet">
<metadata>
Created by potrace 1.15, written by Peter Selinger 2001-2017
</metadata>
<g transform="translate(0.000000,64.000000) scale(0.100000,-0.100000)"
fill="#000000" stroke="none">
<path d="M0 538 c1 -75 3 -98 11 -85 5 9 18 17 27 17 10 0 35 20 56 45 20 25
61 58 89 73 45 23 63 27 142 27 79 0 97 -4 147 -28 66 -33 120 -92 148 -164
l19 -48 1 133 0 132 -320 0 -320 0 0 -102z"/>
<path d="M168 383 c-14 -16 -38 -51 -53 -80 l-28 -52 27 -46 c40 -67 84 -114
123 -130 24 -10 33 -20 31 -32 -4 -22 -31 -28 -49 -11 -8 8 -32 30 -55 51
l-40 36 4 -29 c6 -41 -20 -40 -52 3 -31 40 -44 75 -61 157 l-13 65 -1 -157 -1
-158 320 0 320 0 0 102 0 101 -32 -63 c-35 -68 -60 -92 -78 -74 -7 7 -5 24 9
55 12 24 21 61 21 82 0 38 0 38 -34 32 -87 -17 -233 51 -292 134 -16 22 -32
41 -35 41 -3 0 -17 -12 -31 -27z"/>
</g>
</svg>
