<?xml version="1.0" standalone="no"?>
<!DOCTYPE svg PUBLIC "-//W3C//DTD SVG 20010904//EN"
 "http://www.w3.org/TR/2001/REC-SVG-20010904/DTD/svg10.dtd">
<svg version="1.0" xmlns="http://www.w3.org/2000/svg"
 width="64.000000pt" height="64.000000pt" viewBox="0 0 64.000000 64.000000"
 preserveAspectRatio="xMidYMid meet">
<metadata>
Created by potrace 1.15, written by Peter Selinger 2001-2017
</metadata>
<g transform="translate(0.000000,64.000000) scale(0.100000,-0.100000)"
fill="#000000" stroke="none">
<path d="M0 461 l0 -180 28 15 c15 7 39 14 55 14 24 0 27 3 27 35 0 34 1 35
38 35 33 0 39 4 55 40 13 27 30 44 57 57 l39 18 1 73 0 72 -150 0 -150 0 0
-179z"/>
<path d="M458 595 c5 -60 -8 -75 -69 -75 -61 0 -64 -18 -9 -43 27 -13 44 -30
57 -57 16 -36 22 -40 56 -40 36 0 37 -1 37 -35 0 -32 3 -35 28 -35 15 0 39 -7
55 -14 l27 -15 0 180 0 179 -93 0 -92 0 3 -45z"/>
<path d="M268 293 l-38 -26 0 -73 c0 -59 3 -74 15 -74 12 0 15 14 15 69 0 72
10 92 35 71 10 -9 15 -33 15 -76 0 -36 4 -64 10 -64 6 0 10 28 10 64 0 43 5
67 15 76 25 21 35 1 35 -71 0 -55 3 -69 15 -69 12 0 15 15 15 74 l0 73 -40 27
c-48 32 -55 32 -102 -1z"/>
</g>
</svg>
