<?xml version="1.0" standalone="no"?>
<!DOCTYPE svg PUBLIC "-//W3C//DTD SVG 20010904//EN"
 "http://www.w3.org/TR/2001/REC-SVG-20010904/DTD/svg10.dtd">
<svg version="1.0" xmlns="http://www.w3.org/2000/svg"
 width="64.000000pt" height="64.000000pt" viewBox="0 0 64.000000 64.000000"
 preserveAspectRatio="xMidYMid meet">
<metadata>
Created by potrace 1.15, written by Peter Selinger 2001-2017
</metadata>
<g transform="translate(0.000000,64.000000) scale(0.100000,-0.100000)"
fill="#000000" stroke="none">
<path d="M0 320 l0 -320 202 0 202 0 -32 33 c-18 18 -32 40 -32 48 0 20 62 79
83 79 20 0 23 -30 5 -49 -22 -22 64 18 91 42 13 12 32 40 42 62 10 22 27 48
38 57 21 17 21 17 21 -15 0 -73 -78 -167 -159 -191 -26 -7 -40 -16 -33 -20 7
-4 12 -16 12 -27 0 -18 8 -19 100 -19 l100 0 0 320 0 320 -77 0 c-76 0 -76 0
-58 -20 23 -26 23 -74 0 -100 -26 -29 -89 -27 -109 2 -20 29 -20 67 0 96 l15
22 -205 0 -206 0 0 -320z m265 249 c19 -17 35 -39 35 -48 0 -9 -18 -35 -40
-56 -32 -31 -43 -36 -52 -27 -10 10 -10 17 0 33 12 19 11 20 -10 14 -36 -11
-91 -58 -114 -99 -12 -20 -31 -44 -43 -52 -19 -14 -21 -14 -21 4 0 31 27 88
59 125 27 30 67 53 125 71 15 5 16 9 6 21 -13 16 -7 45 9 45 6 0 26 -14 46
-31z m158 -131 l17 -43 -5 43 c-5 38 -3 42 16 42 13 0 20 -6 18 -17 -4 -47 3
-57 15 -23 11 29 18 35 41 33 53 -4 66 -28 63 -112 l-3 -76 -124 -3 c-82 -2
-128 1 -137 9 -9 7 -14 33 -14 73 0 84 16 106 85 115 6 0 19 -18 28 -41z
m-236 -98 c3 -12 13 -19 26 -17 28 3 64 -57 47 -78 -10 -12 -10 -18 0 -30 17
-21 -19 -81 -47 -78 -13 2 -23 -5 -26 -17 -8 -29 -77 -29 -84 1 -4 16 -11 19
-29 15 -19 -5 -26 0 -39 23 -18 36 -19 57 -2 65 10 5 9 7 0 12 -17 8 -16 29 2
65 13 24 20 28 40 23 21 -5 25 -3 25 15 0 18 6 21 41 21 32 0 42 -4 46 -20z"/>
</g>
</svg>
