<?xml version="1.0" standalone="no"?>
<!DOCTYPE svg PUBLIC "-//W3C//DTD SVG 20010904//EN"
 "http://www.w3.org/TR/2001/REC-SVG-20010904/DTD/svg10.dtd">
<svg version="1.0" xmlns="http://www.w3.org/2000/svg"
 width="64.000000pt" height="64.000000pt" viewBox="0 0 64.000000 64.000000"
 preserveAspectRatio="xMidYMid meet">
<metadata>
Created by potrace 1.15, written by Peter Selinger 2001-2017
</metadata>
<g transform="translate(0.000000,64.000000) scale(0.100000,-0.100000)"
fill="#000000" stroke="none">
<path d="M0 320 l0 -320 170 0 c94 0 170 2 170 4 0 2 -11 23 -25 47 -24 45
-57 215 -47 252 11 42 72 0 72 -50 0 -12 5 -25 10 -28 7 -4 10 51 10 159 0
155 -1 166 -20 176 -11 6 -20 17 -20 25 0 11 -13 15 -51 15 -43 0 -55 -5 -80
-29 l-29 -29 0 -136 c0 -115 2 -136 15 -136 9 0 21 -11 27 -25 6 -14 19 -25
30 -25 11 0 18 -7 18 -20 0 -18 -7 -20 -60 -20 -56 0 -61 2 -70 26 -13 34 -13
390 0 415 10 18 7 19 -55 19 l-65 0 0 -320z m303 168 c33 -17 46 -39 47 -76 0
-49 -17 -75 -44 -68 -13 3 -31 -1 -42 -9 -27 -20 -38 -19 -68 11 -71 72 18
190 107 142z"/>
<path d="M398 628 c8 -8 12 -51 12 -128 l0 -116 55 -54 c49 -48 55 -59 55 -95
0 -22 -4 -58 -9 -80 -5 -22 -12 -66 -16 -97 l-6 -58 75 0 76 0 0 320 0 320
-127 0 c-99 0 -124 -3 -115 -12z"/>
</g>
</svg>
