<?xml version="1.0" standalone="no"?>
<!DOCTYPE svg PUBLIC "-//W3C//DTD SVG 20010904//EN"
 "http://www.w3.org/TR/2001/REC-SVG-20010904/DTD/svg10.dtd">
<svg version="1.0" xmlns="http://www.w3.org/2000/svg"
 width="64.000000pt" height="64.000000pt" viewBox="0 0 64.000000 64.000000"
 preserveAspectRatio="xMidYMid meet">
<metadata>
Created by potrace 1.15, written by Peter Selinger 2001-2017
</metadata>
<g transform="translate(0.000000,64.000000) scale(0.100000,-0.100000)"
fill="#000000" stroke="none">
<path d="M0 553 l0 -88 20 44 c18 39 22 43 47 36 41 -10 190 -25 255 -25 l57
0 46 -72 c36 -55 48 -84 52 -125 l6 -53 78 0 79 0 0 185 0 185 -320 0 -320 0
0 -87z"/>
<path d="M0 205 l0 -205 320 0 320 0 0 45 0 45 -134 0 c-148 0 -146 -1 -146
66 0 28 -4 34 -20 34 -11 0 -23 7 -26 15 -5 12 -15 14 -40 9 -29 -5 -34 -4
-34 14 0 13 -9 22 -25 26 -26 7 -37 46 -12 46 6 1 -14 12 -45 25 -32 13 -70
32 -85 43 -16 10 -38 24 -50 31 l-23 12 0 -206z"/>
</g>
</svg>
