<?xml version="1.0" standalone="no"?>
<!DOCTYPE svg PUBLIC "-//W3C//DTD SVG 20010904//EN"
 "http://www.w3.org/TR/2001/REC-SVG-20010904/DTD/svg10.dtd">
<svg version="1.0" xmlns="http://www.w3.org/2000/svg"
 width="64.000000pt" height="64.000000pt" viewBox="0 0 64.000000 64.000000"
 preserveAspectRatio="xMidYMid meet">
<metadata>
Created by potrace 1.15, written by Peter Selinger 2001-2017
</metadata>
<g transform="translate(0.000000,64.000000) scale(0.100000,-0.100000)"
fill="#000000" stroke="none">
<path d="M0 613 c0 -21 3 -24 12 -15 17 17 519 17 536 0 17 -17 17 -329 0
-346 -17 -17 -519 -17 -536 0 -9 9 -12 -17 -12 -120 l0 -132 320 0 320 0 0
116 c0 92 -3 114 -13 106 -15 -12 -457 -192 -472 -192 -20 0 -41 32 -70 105
-15 39 -29 76 -32 82 -3 8 3 13 16 13 12 0 21 -6 21 -12 1 -36 16 -38 79 -13
57 23 73 25 189 23 l127 -3 -172 -71 c-113 -46 -169 -74 -165 -81 9 -15 453
165 460 186 3 10 -1 12 -17 8 -20 -5 -21 -2 -21 81 0 47 2 83 4 81 3 -3 19
-36 35 -74 l30 -70 1 178 0 177 -320 0 -320 0 0 -27z"/>
</g>
</svg>
