<?xml version="1.0" standalone="no"?>
<!DOCTYPE svg PUBLIC "-//W3C//DTD SVG 20010904//EN"
 "http://www.w3.org/TR/2001/REC-SVG-20010904/DTD/svg10.dtd">
<svg version="1.0" xmlns="http://www.w3.org/2000/svg"
 width="2579.000000pt" height="4689.000000pt" viewBox="0 0 2579.000000 4689.000000"
 preserveAspectRatio="xMidYMid meet">
<metadata>
Created by potrace 1.15, written by Peter Selinger 2001-2017
</metadata>
<g transform="translate(0.000000,4689.000000) scale(0.100000,-0.100000)"
fill="#000000" stroke="none">
<path d="M12855 43827 c-33 -7 -70 -18 -82 -24 -12 -7 -31 -13 -42 -13 -12 0
-21 -4 -21 -9 0 -5 -19 -12 -42 -16 -24 -4 -50 -13 -59 -21 -8 -8 -27 -15 -42
-16 -14 -1 -24 -4 -22 -7 6 -6 -44 -31 -61 -31 -8 0 -14 -4 -14 -8 0 -12 -46
-32 -71 -32 -12 0 -23 -8 -26 -20 -3 -11 -8 -20 -12 -20 -3 0 -22 -14 -41 -30
-19 -16 -41 -30 -48 -30 -7 0 -15 -6 -18 -14 -3 -8 -15 -17 -27 -20 -12 -3
-18 -8 -14 -12 9 -9 -22 -44 -40 -44 -7 0 -13 -6 -13 -13 0 -15 -88 -100 -113
-110 -10 -3 -17 -11 -17 -18 0 -16 -42 -48 -64 -49 -12 0 -16 -5 -12 -15 3 -9
0 -15 -9 -15 -14 0 -41 -38 -37 -52 1 -4 -7 -10 -18 -13 -11 -4 -20 -11 -20
-16 0 -5 -9 -9 -20 -9 -11 0 -20 -7 -20 -15 0 -8 -4 -15 -10 -15 -5 0 -10 -8
-10 -17 0 -20 -35 -56 -63 -66 -10 -4 -15 -11 -12 -17 3 -5 -3 -10 -13 -10
-13 0 -22 -9 -26 -25 -4 -15 -16 -27 -31 -31 -14 -3 -25 -10 -25 -15 0 -17
-41 -50 -58 -47 -9 2 -17 -1 -18 -7 -2 -25 -24 -63 -40 -69 -9 -4 -14 -9 -11
-13 4 -3 -30 -40 -75 -82 -45 -42 -114 -109 -154 -148 -40 -40 -75 -73 -77
-73 -5 0 -93 -90 -127 -130 -14 -16 -30 -30 -37 -30 -6 0 -15 -9 -18 -20 -4
-11 -10 -18 -15 -15 -4 3 -15 -6 -24 -20 -22 -33 -68 -75 -83 -75 -7 0 -10 -7
-7 -15 4 -8 1 -15 -6 -15 -7 0 -29 -18 -48 -41 -19 -22 -46 -45 -59 -50 -13
-5 -21 -13 -18 -19 3 -5 -1 -10 -9 -10 -9 0 -16 -6 -16 -13 0 -11 -30 -46 -72
-84 -7 -7 -26 -26 -42 -42 -16 -16 -35 -27 -43 -24 -8 3 -13 -2 -13 -15 0 -22
-67 -79 -87 -74 -7 2 -13 -6 -13 -18 0 -11 -6 -19 -12 -18 -7 2 -12 -2 -11 -8
1 -7 -20 -33 -47 -58 -28 -26 -50 -49 -50 -52 0 -12 -65 -74 -77 -74 -7 0 -16
-7 -19 -15 -3 -8 -13 -17 -23 -20 -9 -2 -21 -15 -26 -27 -6 -13 -16 -22 -23
-21 -7 2 -12 -4 -12 -12 0 -8 -9 -20 -20 -27 -11 -7 -20 -18 -20 -25 0 -7 -7
-13 -15 -13 -8 0 -15 -4 -15 -10 0 -5 -12 -10 -26 -10 -19 0 -25 -4 -20 -15 6
-16 -30 -65 -49 -65 -6 0 -19 -16 -29 -35 -11 -19 -24 -35 -30 -35 -6 0 -20
-14 -31 -30 -11 -16 -28 -30 -38 -30 -10 0 -20 -8 -24 -17 -8 -23 -64 -83 -78
-83 -5 0 -15 -10 -20 -22 -6 -13 -17 -22 -25 -20 -8 2 -12 0 -8 -4 8 -8 -37
-54 -53 -54 -6 0 -8 -3 -5 -8 2 -4 -12 -21 -31 -37 -19 -17 -40 -36 -47 -43
-6 -7 -19 -22 -28 -33 -10 -10 -18 -23 -18 -29 0 -5 -7 -7 -15 -4 -8 4 -15 1
-15 -5 0 -20 -128 -141 -149 -141 -18 0 -23 -8 -20 -36 0 -3 -16 -18 -35 -33
-19 -15 -46 -42 -61 -59 -15 -18 -33 -32 -41 -32 -8 0 -14 -8 -14 -19 0 -19
-43 -54 -66 -54 -7 0 -10 -6 -7 -14 4 -9 0 -11 -11 -7 -12 5 -16 0 -16 -20 0
-14 -4 -26 -10 -26 -5 0 -20 -10 -34 -22 -13 -13 -30 -28 -38 -35 -7 -6 -44
-44 -82 -83 -39 -40 -75 -69 -82 -66 -7 3 -16 1 -19 -4 -4 -6 -1 -10 6 -10 8
0 7 -6 -4 -17 -44 -49 -145 -150 -162 -164 -11 -9 -37 -35 -58 -58 -21 -22
-45 -41 -53 -41 -8 0 -14 -6 -14 -13 0 -16 -93 -107 -109 -107 -6 0 -11 -6
-11 -13 0 -7 -18 -30 -41 -52 -22 -22 -50 -51 -62 -64 -49 -53 -60 -62 -69
-49 -7 12 -12 3 -9 -16 1 -4 -24 -33 -56 -63 -32 -30 -62 -59 -68 -64 -5 -5
-27 -27 -48 -49 -21 -22 -43 -40 -48 -40 -5 0 -9 -7 -9 -16 0 -9 -5 -12 -12
-8 -7 5 -8 3 -3 -5 8 -14 -33 -48 -50 -43 -5 2 -7 1 -3 -3 7 -8 -47 -65 -62
-65 -5 0 -10 -7 -10 -15 0 -8 -7 -15 -15 -15 -8 0 -15 -6 -15 -14 0 -8 -9 -17
-19 -21 -11 -3 -26 -17 -35 -30 -9 -14 -25 -25 -36 -25 -11 0 -20 -6 -20 -14
0 -8 -27 -42 -60 -77 -33 -35 -60 -67 -60 -71 0 -5 -9 -8 -20 -8 -11 0 -20 -6
-20 -13 0 -7 -9 -19 -20 -27 -11 -8 -20 -20 -20 -26 0 -12 -28 -29 -42 -26 -5
1 -8 -5 -8 -13 0 -9 -6 -12 -15 -9 -9 4 -15 0 -15 -10 0 -18 -66 -89 -92 -99
-10 -3 -18 -11 -18 -17 0 -5 -9 -10 -19 -10 -14 0 -18 -5 -14 -18 3 -13 -7
-26 -34 -45 -21 -14 -47 -42 -57 -62 -11 -19 -23 -35 -27 -35 -5 0 -21 -13
-37 -28 -16 -16 -37 -32 -46 -35 -10 -4 -15 -11 -12 -15 3 -5 -22 -33 -56 -63
-33 -30 -81 -75 -106 -101 -29 -32 -53 -48 -69 -48 -20 0 -24 -4 -21 -22 2
-17 -11 -36 -47 -71 -76 -73 -81 -77 -93 -77 -7 0 -12 -5 -12 -11 0 -16 -121
-129 -138 -129 -7 0 -16 -8 -19 -17 -4 -10 -21 -32 -37 -50 -17 -17 -41 -46
-54 -62 -13 -17 -32 -31 -43 -31 -10 0 -19 -6 -19 -12 -1 -20 -49 -70 -60 -63
-6 4 -10 3 -9 -2 4 -21 -2 -33 -16 -33 -8 0 -15 -4 -15 -10 0 -5 -7 -10 -15
-10 -8 0 -15 -6 -15 -13 0 -17 -42 -52 -57 -49 -7 2 -13 -7 -13 -18 0 -14 -5
-20 -17 -18 -10 2 -17 -3 -15 -9 1 -7 -7 -13 -19 -13 -15 0 -19 -5 -14 -19 4
-13 -3 -26 -25 -44 -16 -14 -30 -28 -30 -31 0 -9 -39 -46 -49 -46 -5 0 -11 -7
-15 -15 -3 -8 -12 -12 -21 -9 -10 4 -15 0 -15 -13 0 -20 -53 -76 -82 -86 -10
-4 -18 -13 -18 -22 0 -8 -7 -15 -15 -15 -8 0 -15 -6 -15 -13 0 -8 -16 -28 -35
-46 -19 -17 -35 -27 -35 -21 0 23 -19 8 -22 -17 -2 -17 -12 -32 -25 -38 -13
-5 -23 -15 -23 -21 0 -12 -98 -104 -112 -104 -4 0 -8 -7 -8 -15 0 -8 -6 -15
-14 -15 -7 0 -16 -9 -19 -20 -3 -13 -14 -20 -28 -20 -12 0 -19 -3 -16 -6 7 -7
-222 -244 -236 -244 -10 0 -28 -19 -43 -45 -6 -11 -20 -24 -32 -30 -12 -5 -22
-13 -22 -18 0 -12 -133 -143 -152 -150 -10 -3 -18 -10 -18 -15 0 -13 -103
-117 -123 -125 -10 -4 -15 -12 -11 -18 4 -8 0 -9 -15 -4 -16 5 -20 3 -15 -9 6
-15 -28 -56 -46 -56 -6 0 -10 -4 -10 -10 0 -17 -73 -80 -89 -78 -10 2 -15 -3
-13 -13 1 -10 -6 -19 -18 -22 -11 -3 -20 -12 -20 -21 0 -9 -7 -16 -15 -16 -8
0 -15 -4 -15 -10 0 -18 -41 -52 -56 -46 -11 4 -14 1 -9 -12 6 -20 -19 -49
-108 -129 -25 -24 -44 -43 -42 -43 3 0 -14 -17 -37 -37 -23 -21 -73 -68 -111
-105 -38 -38 -73 -68 -78 -68 -5 0 -9 -5 -9 -11 0 -19 -230 -239 -253 -243
-14 -2 -21 -9 -19 -20 2 -9 -4 -16 -13 -16 -9 0 -13 -4 -10 -10 3 -5 1 -10 -4
-10 -6 0 -11 -7 -11 -15 0 -8 -3 -15 -7 -15 -12 0 -103 -84 -103 -94 0 -5 -10
-17 -22 -28 -13 -11 -34 -29 -48 -42 -14 -12 -33 -25 -43 -29 -9 -3 -17 -12
-17 -19 -1 -17 -35 -58 -49 -58 -6 0 -11 -4 -11 -9 0 -5 -8 -8 -17 -7 -12 0
-17 -5 -15 -16 1 -9 -2 -19 -8 -23 -5 -3 -10 -1 -10 4 0 6 -4 11 -10 11 -5 0
-10 -7 -10 -15 0 -22 -30 -65 -45 -65 -7 0 -24 -17 -39 -39 -30 -43 -80 -91
-96 -91 -5 0 -10 -6 -10 -12 0 -16 -88 -102 -112 -111 -10 -3 -18 -13 -18 -21
0 -9 -13 -22 -30 -31 -17 -9 -30 -22 -30 -30 0 -8 -6 -15 -14 -15 -8 0 -17 -8
-20 -17 -7 -20 -77 -73 -96 -73 -6 0 -9 -8 -6 -18 4 -12 -4 -28 -24 -47 -51
-49 -60 -34 164 -265 62 -63 120 -126 129 -140 9 -13 17 -21 17 -16 0 5 9 -2
21 -15 11 -13 127 -134 257 -268 374 -385 402 -414 496 -513 49 -51 171 -176
270 -278 341 -350 591 -608 771 -795 99 -103 225 -233 280 -290 212 -218 735
-760 745 -772 3 -3 -1 -3 -7 1 -19 11 -71 -24 -78 -53 -4 -14 -10 -28 -14 -31
-5 -3 -11 -15 -15 -27 -6 -20 -4 -23 18 -23 16 0 26 6 26 14 0 22 52 76 73 76
14 0 17 5 13 18 -7 18 69 -58 469 -473 132 -136 265 -274 295 -305 30 -31 159
-163 285 -294 127 -131 289 -298 360 -371 127 -131 462 -477 624 -645 197
-204 302 -313 563 -581 152 -156 306 -315 343 -354 37 -38 178 -184 314 -324
135 -139 275 -283 309 -320 35 -36 130 -134 210 -217 81 -83 221 -229 312
-323 91 -95 202 -209 247 -254 45 -44 79 -85 76 -90 -3 -6 -2 -7 4 -4 12 7 59
-43 55 -58 -2 -5 -1 -8 2 -5 9 9 366 -349 366 -366 0 -10 6 -14 15 -10 9 3 15
0 15 -9 0 -8 7 -15 15 -15 8 0 15 -7 15 -15 0 -8 6 -15 14 -15 8 0 27 -14 43
-31 15 -17 56 -60 91 -94 34 -35 62 -68 62 -74 0 -6 11 -17 25 -23 14 -6 25
-15 25 -19 0 -4 11 -20 25 -35 14 -15 25 -33 25 -39 0 -7 11 -15 24 -19 13 -3
34 -21 47 -41 13 -19 30 -35 37 -35 6 0 12 -7 12 -15 0 -8 4 -15 10 -15 15 0
160 -151 160 -166 0 -8 6 -14 14 -14 8 0 16 -3 18 -7 2 -5 21 -24 43 -43 22
-20 40 -44 40 -55 0 -12 6 -19 14 -17 19 4 41 -17 41 -39 0 -11 7 -19 15 -19
18 0 76 -38 88 -57 4 -7 14 -13 22 -13 8 0 12 -6 9 -14 -4 -9 7 -15 35 -20 22
-3 47 -14 57 -24 10 -9 19 -16 21 -14 9 7 23 0 23 -10 0 -7 15 -23 33 -35 18
-13 46 -41 63 -63 16 -22 35 -40 42 -40 6 0 12 -3 12 -7 0 -5 29 -38 65 -75
36 -38 61 -68 57 -68 -4 0 4 -6 17 -13 13 -6 29 -21 35 -31 6 -11 26 -33 44
-49 17 -16 32 -35 32 -43 0 -8 5 -14 12 -14 7 0 63 -53 126 -117 62 -65 142
-148 178 -184 35 -37 64 -72 64 -78 0 -6 5 -11 10 -11 13 0 50 -37 50 -50 0
-5 7 -10 15 -10 8 0 27 -14 42 -32 16 -17 67 -70 114 -118 47 -48 83 -92 81
-98 -2 -7 6 -12 17 -12 12 0 21 -6 21 -13 0 -7 9 -18 20 -25 12 -7 20 -23 20
-38 0 -21 3 -24 21 -19 13 4 27 1 40 -11 18 -17 18 -17 -7 -40 -14 -13 -29
-24 -33 -24 -5 0 -16 -11 -25 -25 -9 -14 -21 -23 -27 -20 -5 4 -12 -1 -15 -9
-3 -9 -12 -16 -20 -16 -8 0 -13 -3 -12 -7 5 -17 -24 -53 -42 -53 -11 0 -20 -7
-20 -15 0 -8 -7 -15 -15 -15 -8 0 -15 -7 -15 -16 0 -15 -23 -44 -34 -44 -3 0
-18 -13 -33 -28 -16 -16 -37 -32 -47 -36 -10 -3 -16 -9 -13 -13 8 -7 -39 -53
-54 -53 -5 0 -9 -7 -9 -16 0 -11 -6 -13 -19 -9 -11 3 -22 1 -26 -5 -3 -5 -1
-10 4 -10 6 0 11 -5 11 -11 0 -5 -5 -7 -11 -4 -6 4 -13 -2 -16 -14 -3 -12 -11
-21 -17 -21 -7 0 -27 -20 -46 -45 -33 -44 -41 -49 -68 -46 -9 2 -12 -4 -8 -17
5 -15 -2 -26 -26 -43 -18 -13 -66 -56 -106 -95 -81 -81 -104 -87 -150 -40 -15
15 -66 65 -114 110 -49 46 -88 90 -88 97 0 7 -3 9 -7 6 -3 -4 -16 7 -28 23
-12 16 -40 46 -63 66 -23 20 -42 43 -42 50 0 8 -4 14 -9 14 -13 0 -181 165
-181 178 0 7 -6 12 -13 12 -14 0 -47 35 -47 49 0 5 -12 17 -27 27 -36 23 -58
54 -55 77 2 12 -3 17 -22 17 -28 0 -42 16 -38 43 3 14 -2 17 -24 15 -22 -2
-30 3 -43 29 -9 18 -22 33 -28 33 -7 0 -13 7 -13 15 0 8 -7 15 -15 15 -8 0
-15 7 -15 15 0 7 -7 18 -17 23 -10 6 -14 16 -10 26 5 14 3 16 -12 11 -12 -3
-21 0 -25 10 -3 8 -15 15 -26 15 -11 0 -20 4 -20 8 0 4 -33 42 -72 84 -144
151 -168 177 -168 185 0 5 -14 14 -30 21 -17 8 -30 20 -30 28 0 8 -4 14 -10
14 -5 0 -12 11 -16 25 -4 16 -13 25 -25 25 -19 0 -119 93 -119 111 0 5 -6 9
-12 10 -7 0 -31 22 -53 49 -22 27 -48 51 -57 55 -10 3 -18 12 -18 18 0 7 -9
19 -19 27 -11 7 -18 17 -15 22 3 4 -2 11 -12 15 -19 7 -74 59 -74 70 0 4 -16
19 -35 33 -19 14 -35 30 -35 36 0 6 -11 17 -25 24 -14 7 -30 26 -37 41 -7 15
-21 30 -31 33 -10 2 -21 14 -24 25 -3 12 -11 21 -17 21 -6 0 -18 10 -26 21 -8
12 -20 27 -27 34 -9 9 -9 15 0 25 10 10 7 11 -11 5 -17 -5 -29 1 -52 25 -17
18 -30 35 -30 39 0 4 -13 17 -30 29 -18 14 -27 28 -24 37 4 11 2 13 -9 10 -8
-4 -17 1 -20 9 -4 9 -13 16 -22 16 -8 0 -15 5 -15 11 0 6 -26 37 -57 69 -32
32 -70 72 -85 89 -15 17 -32 31 -38 31 -5 0 -10 4 -10 8 0 12 -68 82 -80 82
-5 0 -7 7 -3 16 4 10 -1 17 -16 21 -11 3 -21 9 -21 14 0 5 -11 14 -24 20 -13
6 -30 22 -37 35 -7 13 -18 24 -26 24 -7 0 -13 7 -13 15 0 8 -4 15 -10 15 -5 0
-16 12 -24 28 -8 15 -15 24 -16 19 0 -11 -96 87 -103 106 -4 10 -13 17 -22 17
-8 0 -15 3 -15 8 0 4 -62 71 -137 148 -76 78 -145 151 -153 163 -8 11 -20 21
-27 21 -7 0 -13 4 -13 9 0 10 -46 61 -56 61 -8 0 -154 153 -154 163 0 4 -6 7
-13 7 -7 0 -19 10 -27 21 -8 12 -20 27 -26 33 -6 6 -9 17 -6 24 2 6 -3 12 -12
12 -20 0 -56 35 -56 55 0 9 -6 12 -15 9 -9 -4 -15 0 -15 9 0 9 -13 23 -28 32
-16 10 -37 30 -47 46 -11 15 -29 33 -40 39 -18 10 -42 41 -70 92 -5 10 -13 18
-17 18 -15 0 -168 144 -168 158 0 3 -36 39 -80 81 -44 42 -80 82 -80 89 0 7
-7 12 -15 12 -8 0 -15 7 -15 15 0 8 -6 15 -14 15 -8 0 -18 9 -21 20 -3 11 -11
20 -16 20 -5 0 -9 9 -9 20 0 12 -7 20 -16 20 -23 0 -114 89 -107 106 3 9 -1
14 -12 14 -14 0 -80 63 -150 142 -11 13 -35 34 -52 48 -18 14 -33 32 -33 41 0
9 -9 19 -20 22 -11 3 -20 12 -20 21 0 9 -4 16 -10 16 -15 0 -50 33 -50 47 0 7
-6 13 -12 13 -7 0 -38 28 -68 61 -30 34 -67 73 -82 87 -16 14 -28 31 -28 39 0
7 -5 13 -10 13 -14 0 -150 138 -150 151 0 6 -4 8 -8 5 -4 -2 -18 11 -31 30
-13 19 -27 34 -32 34 -5 0 -9 7 -9 15 0 8 -6 15 -12 15 -11 0 -32 21 -130 131
-10 10 -18 24 -18 29 0 6 -9 10 -20 10 -13 0 -18 5 -14 15 4 9 0 15 -10 15
-15 0 -56 33 -56 45 0 3 -36 41 -80 86 -44 44 -80 85 -80 90 0 5 -7 9 -15 9
-8 0 -15 6 -15 13 0 8 -11 20 -25 27 -14 8 -28 24 -31 37 -4 13 -12 23 -20 23
-8 0 -11 6 -8 15 4 10 0 15 -15 15 -12 0 -21 6 -21 15 0 8 -4 15 -10 15 -14 0
-50 37 -43 44 4 3 0 6 -9 6 -8 0 -23 9 -33 20 -10 11 -26 20 -37 20 -10 0 -18
4 -18 9 0 11 -86 71 -101 71 -5 0 -9 5 -9 10 0 6 -8 10 -17 10 -10 1 -36 9
-58 20 -22 11 -46 19 -52 20 -7 0 -13 4 -13 9 0 5 -15 11 -32 14 -72 13 -98
20 -98 26 0 21 -286 14 -328 -8 -9 -5 -36 -12 -59 -16 -24 -4 -43 -11 -43 -17
0 -6 -10 -8 -24 -4 -18 4 -25 1 -29 -13 -3 -11 -17 -22 -36 -26 -17 -4 -31
-11 -31 -17 0 -6 -9 -8 -19 -5 -13 3 -18 0 -15 -8 5 -13 -57 -85 -73 -85 -5 0
-41 -30 -80 -67 -141 -136 -161 -153 -177 -153 -9 0 -16 -7 -16 -16 0 -10 -7
-14 -22 -12 -17 2 -22 -1 -20 -14 2 -10 -2 -18 -7 -18 -5 0 -18 -14 -28 -31
-14 -23 -24 -29 -41 -26 -17 3 -21 1 -17 -12 3 -11 -9 -28 -37 -51 -41 -34
-75 -65 -187 -170 -30 -27 -62 -50 -72 -50 -11 0 -19 -7 -19 -15 0 -20 -65
-85 -85 -85 -8 0 -15 -4 -15 -8 0 -10 -68 -82 -78 -82 -7 0 -84 -70 -207 -191
-33 -33 -66 -59 -72 -59 -13 0 -63 -43 -63 -54 0 -24 -110 -102 -125 -88 -4 4
-5 0 -3 -9 4 -19 -63 -89 -86 -89 -9 0 -16 -8 -16 -20 0 -17 -4 -19 -27 -14
-23 6 -25 4 -21 -14 4 -15 -4 -28 -30 -49 -19 -15 -61 -53 -92 -83 -80 -76
-120 -110 -131 -110 -5 0 -12 -6 -15 -14 -3 -8 -14 -16 -25 -19 -10 -3 -19
-13 -19 -24 -1 -10 -21 -38 -45 -63 -31 -31 -49 -62 -62 -102 -10 -32 -21 -58
-25 -58 -5 0 -8 -11 -8 -24 0 -13 -5 -26 -10 -28 -16 -5 -18 -314 -2 -330 6
-6 12 -34 12 -60 0 -26 4 -48 10 -48 5 0 15 -20 21 -45 6 -25 15 -45 20 -45 5
0 6 -7 3 -15 -4 -8 -1 -15 6 -15 6 0 8 -4 5 -10 -3 -5 4 -20 17 -32 21 -21 46
-53 73 -97 28 -45 76 -103 135 -162 36 -36 81 -84 100 -107 19 -23 40 -42 47
-42 7 0 13 -5 13 -11 0 -5 40 -50 88 -98 48 -48 86 -93 84 -99 -2 -7 6 -12 17
-12 12 0 21 -4 21 -8 0 -4 20 -29 45 -55 25 -27 45 -55 45 -63 0 -7 7 -14 16
-14 22 0 204 -188 204 -210 0 -5 5 -10 11 -10 18 0 181 -169 174 -180 -4 -6 0
-10 8 -10 17 0 114 -95 122 -121 4 -10 11 -19 16 -19 13 0 159 -147 159 -160
0 -6 5 -10 10 -10 13 0 69 -62 70 -76 0 -7 9 -14 21 -17 11 -3 23 -15 26 -26
3 -12 10 -21 16 -21 6 0 43 -35 84 -77 41 -43 73 -78 72 -78 -2 0 25 -27 59
-59 46 -43 61 -64 56 -78 -4 -14 0 -18 16 -18 20 0 62 -30 43 -30 -4 -1 4 -8
20 -16 15 -8 27 -21 27 -29 0 -8 4 -15 9 -15 12 0 71 -58 71 -70 0 -4 7 -10
15 -14 8 -3 15 -15 15 -26 0 -11 7 -20 15 -20 16 0 185 -165 185 -180 0 -6 4
-10 9 -10 10 0 71 -58 71 -66 0 -3 28 -34 62 -69 35 -35 69 -70 76 -77 104
-108 155 -158 162 -158 3 0 16 -18 29 -40 12 -22 27 -40 33 -40 13 0 128 -119
128 -132 0 -4 7 -8 15 -8 10 0 15 -7 13 -17 -2 -10 3 -18 12 -18 16 0 178
-157 206 -199 9 -15 23 -26 30 -26 8 0 14 -4 14 -9 0 -4 20 -29 45 -54 25 -26
45 -51 45 -57 0 -5 6 -10 13 -10 7 0 38 -27 68 -61 29 -33 60 -66 67 -72 7 -7
18 -18 25 -25 7 -7 54 -56 105 -108 50 -53 92 -98 92 -102 0 -4 12 -18 25 -31
14 -12 22 -28 18 -35 -3 -6 -2 -8 2 -3 10 9 55 -31 55 -50 0 -7 7 -13 15 -13
8 0 15 -9 15 -20 0 -13 7 -20 18 -20 21 0 72 -53 72 -74 0 -8 9 -18 21 -21 21
-7 119 -103 119 -117 0 -5 6 -8 13 -8 7 0 20 -12 29 -27 9 -16 51 -63 92 -106
42 -43 76 -83 76 -88 0 -5 4 -9 9 -9 9 0 81 -65 81 -74 0 -3 28 -34 63 -68 76
-77 97 -104 97 -123 0 -9 6 -12 15 -9 9 4 15 0 15 -10 0 -9 5 -16 10 -16 13 0
50 -37 50 -50 0 -5 7 -10 15 -10 8 0 15 -7 15 -15 0 -8 7 -15 15 -15 8 0 15
-6 15 -13 0 -14 35 -47 50 -47 6 0 10 -4 10 -10 0 -5 29 -38 64 -74 35 -35 67
-73 71 -85 3 -11 12 -21 18 -21 7 -1 21 -12 32 -27 11 -14 30 -35 43 -46 12
-11 22 -29 22 -39 0 -10 7 -18 18 -18 21 0 88 -70 84 -89 -2 -8 2 -12 11 -8
15 6 70 -46 61 -56 -3 -3 4 -8 15 -12 12 -3 21 -9 21 -13 0 -4 16 -25 35 -46
19 -22 35 -47 35 -56 0 -23 11 -32 26 -19 8 7 14 7 19 -1 3 -5 1 -10 -4 -10
-6 0 -11 -7 -11 -15 0 -8 9 -15 20 -15 11 0 20 -4 20 -10 0 -5 5 -10 11 -10
13 0 159 -149 159 -162 0 -4 7 -8 15 -8 8 0 15 -4 15 -8 0 -4 17 -27 39 -49
21 -23 36 -45 33 -48 -3 -3 4 -8 16 -12 12 -3 22 -12 22 -19 0 -8 7 -14 15
-14 8 0 15 -6 15 -13 0 -14 35 -47 50 -47 10 0 14 -14 10 -39 -1 -8 4 -11 12
-8 8 3 22 -7 34 -24 10 -16 22 -29 25 -29 10 0 159 -152 159 -162 0 -4 5 -8
10 -8 6 0 10 -5 10 -11 0 -6 20 -29 45 -51 25 -22 45 -47 45 -54 0 -8 4 -14 8
-14 17 0 57 -42 54 -56 -2 -8 4 -14 13 -14 15 0 45 -22 45 -32 0 -3 36 -41 80
-85 44 -44 80 -84 80 -88 0 -4 25 -31 55 -60 30 -28 55 -56 55 -62 0 -5 12
-16 26 -23 14 -8 33 -27 42 -42 9 -15 22 -28 29 -28 7 0 13 -7 13 -15 0 -8 7
-15 15 -15 8 0 15 -4 15 -10 0 -5 32 -42 70 -82 88 -92 100 -106 100 -118 0
-5 5 -10 10 -10 6 0 10 -7 10 -15 0 -8 7 -15 15 -15 8 0 15 -7 15 -15 0 -8 7
-15 15 -15 8 0 15 -9 15 -20 0 -13 6 -20 14 -18 14 3 146 -125 146 -142 0 -6
4 -10 8 -10 15 0 82 -70 82 -85 0 -8 9 -19 20 -25 11 -6 20 -17 20 -25 0 -9 6
-12 15 -9 9 4 15 0 15 -10 0 -9 5 -16 10 -16 6 0 10 -7 10 -15 0 -8 7 -15 15
-15 8 0 15 -7 15 -15 0 -8 6 -15 13 -15 16 0 57 -42 57 -58 0 -7 5 -12 10 -12
6 0 10 -7 10 -15 0 -8 7 -15 15 -15 16 0 145 -128 145 -145 0 -5 16 -23 35
-38 19 -15 35 -34 35 -42 0 -8 7 -15 15 -15 8 0 15 -4 15 -10 0 -5 7 -10 15
-10 8 0 15 -9 15 -20 0 -11 5 -20 10 -20 6 0 19 -9 30 -20 11 -11 20 -24 20
-30 0 -5 4 -10 9 -10 10 0 181 -174 181 -185 0 -3 20 -25 45 -51 25 -25 45
-52 45 -60 0 -8 8 -14 18 -14 10 0 38 -23 62 -52 25 -28 80 -88 123 -131 42
-44 77 -86 77 -93 0 -7 9 -18 19 -24 33 -17 50 -40 44 -57 -5 -12 -2 -15 9
-10 17 6 40 -15 51 -45 4 -10 12 -18 18 -18 7 0 67 -56 135 -125 68 -69 128
-125 133 -125 6 0 8 -7 5 -15 -5 -11 -2 -13 10 -9 9 3 16 2 16 -2 0 -5 12 -15
28 -21 15 -7 41 -25 57 -40 17 -16 48 -34 70 -42 21 -8 45 -20 53 -27 7 -8 22
-14 32 -14 10 0 22 -5 25 -10 3 -6 14 -10 23 -10 10 0 34 -11 53 -24 20 -14
49 -28 65 -32 16 -4 34 -11 40 -16 47 -36 516 -25 540 13 3 5 16 9 30 9 13 0
24 4 24 9 0 5 25 13 55 16 37 5 55 12 55 21 0 8 5 14 10 14 6 0 30 9 52 20 23
11 45 20 49 20 5 0 25 11 45 25 20 14 40 22 45 19 5 -3 12 2 15 10 3 9 10 16
16 16 5 0 25 16 45 35 20 19 42 35 50 35 7 0 13 7 13 15 0 9 10 15 26 15 18 0
25 4 21 14 -6 15 16 39 46 49 10 4 16 11 13 15 -6 10 25 38 53 47 12 3 19 11
15 16 -7 11 94 109 113 109 7 0 13 7 13 15 0 8 7 15 15 15 8 0 15 7 15 15 0 8
5 15 10 15 6 0 14 8 17 17 9 23 40 53 47 45 8 -8 42 30 50 56 4 12 14 22 22
22 8 0 14 7 14 15 0 8 6 15 14 15 7 0 22 11 32 25 10 14 24 25 31 25 7 0 13 5
13 12 0 17 76 88 95 88 9 0 13 5 10 10 -3 6 -2 10 3 10 5 0 14 11 20 25 6 14
18 25 27 25 8 0 15 7 15 14 0 8 36 50 81 93 45 43 129 124 187 181 57 56 109
102 113 102 5 0 9 5 9 11 0 11 106 119 118 119 4 0 18 16 32 35 14 18 35 39
48 46 12 7 22 18 22 26 0 7 7 13 15 13 8 0 15 4 15 10 0 16 74 79 93 80 9 0
17 6 17 14 0 8 7 16 15 20 8 3 15 12 15 20 0 19 87 106 106 106 8 0 14 7 14
15 0 9 7 18 15 21 8 4 15 12 15 19 0 15 80 70 98 67 6 -2 12 4 12 11 0 8 7 18
16 21 8 3 13 10 10 15 -6 9 61 81 76 81 4 0 8 6 8 13 0 19 87 100 99 93 7 -4
11 1 11 13 0 12 5 21 11 21 6 0 20 11 31 25 11 14 26 25 34 25 8 0 14 5 14 11
0 16 68 79 85 79 8 0 15 7 15 17 0 9 21 38 48 64 26 26 65 67 87 91 22 24 43
44 47 44 5 1 15 2 24 3 10 1 14 7 10 16 -3 8 -1 15 4 15 6 0 10 7 10 15 0 8 5
15 11 15 13 0 179 167 179 180 0 6 5 10 12 10 6 0 32 22 58 48 26 26 52 46 58
44 7 -2 12 4 12 13 0 20 105 123 138 136 12 5 22 15 22 23 0 8 20 32 45 54 25
22 45 44 45 50 0 6 13 16 30 24 21 9 30 20 30 35 0 13 6 23 14 23 7 0 19 6 26
14 6 8 19 12 27 9 12 -5 15 -2 10 10 -8 22 29 61 49 53 8 -3 12 -2 9 4 -8 14
26 50 48 50 13 0 17 5 13 16 -4 11 1 18 14 21 11 3 20 9 20 13 0 13 66 80 78
80 6 0 13 9 17 19 4 12 12 18 21 14 8 -3 14 1 14 11 0 9 5 16 10 16 6 0 14 8
17 18 10 25 104 122 136 138 15 8 27 19 27 25 0 5 16 24 36 42 52 46 64 58
107 105 21 24 49 47 62 52 15 6 25 17 25 30 0 13 9 22 25 26 14 3 23 9 20 14
-2 4 10 21 28 38 18 18 43 43 56 57 13 13 28 22 32 19 5 -3 9 2 9 10 0 9 7 16
15 16 8 0 15 5 15 11 0 14 315 329 329 329 6 0 11 6 11 14 0 8 9 18 20 21 11
3 20 13 20 22 0 10 6 14 20 10 16 -4 20 0 20 19 0 17 7 25 25 30 14 3 25 12
25 19 0 18 34 45 58 45 16 0 22 6 22 23 1 26 43 78 68 82 10 1 16 9 14 19 -2
10 4 16 16 16 12 0 22 9 26 23 3 12 19 30 36 40 18 11 28 23 24 30 -5 8 -3 8
7 0 17 -17 30 -16 23 1 -6 14 67 96 86 96 5 0 10 7 10 15 0 8 7 15 15 15 8 0
15 6 15 14 0 15 62 66 79 66 6 0 11 8 11 18 0 9 10 27 23 39 12 12 61 60 109
107 48 47 91 86 95 86 10 0 43 37 43 48 0 16 84 77 102 74 15 -3 19 1 16 19
-3 24 10 39 120 141 28 25 53 44 56 40 3 -3 6 2 6 11 0 10 4 17 9 17 5 0 13 9
16 20 3 11 13 20 21 20 8 0 14 3 14 8 0 4 14 16 30 27 16 11 30 26 30 33 0 6
7 12 15 12 8 0 15 6 15 14 0 7 9 16 20 19 11 3 23 13 26 24 12 32 47 63 71 63
15 0 23 6 23 18 1 20 33 62 49 62 6 0 11 7 11 15 0 8 7 15 15 15 8 0 15 5 15
10 0 6 7 10 16 10 10 0 14 6 10 15 -3 8 -2 15 3 15 13 0 61 48 61 60 0 7 8 9
20 5 16 -5 20 -2 20 14 0 14 5 19 15 15 10 -4 15 0 15 15 0 12 6 21 15 21 8 0
15 7 15 15 0 9 7 18 15 21 8 4 15 10 15 15 0 15 40 50 50 44 6 -4 10 3 10 14
0 14 6 21 20 21 11 0 20 7 20 16 0 18 59 74 78 74 7 0 16 8 19 17 13 33 97
109 116 105 15 -3 18 1 15 20 -2 16 4 26 20 33 12 5 22 14 22 20 0 15 97 110
112 110 4 0 8 3 8 7 0 17 45 58 62 58 11 0 16 5 13 10 -3 6 1 13 9 16 9 3 16
10 16 15 0 9 43 53 124 126 25 23 46 44 46 48 0 14 31 36 47 33 10 -2 17 2 16
10 -2 6 2 12 7 12 6 0 10 7 10 15 0 17 43 65 58 65 6 0 12 7 16 15 3 8 12 15
21 15 8 0 15 5 15 11 0 15 164 179 178 179 7 0 12 7 12 15 0 8 7 15 15 15 8 0
15 7 15 15 0 9 6 12 15 9 9 -4 15 0 15 10 0 22 30 55 46 49 7 -3 14 5 16 19 2
13 9 22 16 21 6 -2 12 3 12 10 0 14 73 77 89 77 6 0 11 7 11 15 0 8 6 15 14
15 8 0 18 9 21 21 4 13 12 18 22 15 11 -4 13 -1 8 14 -5 14 -2 20 10 20 8 0
18 7 21 15 4 8 15 15 25 15 12 0 19 7 19 20 0 12 13 33 28 48 16 15 74 71 130
125 55 53 105 97 111 97 6 0 11 5 11 11 0 10 93 109 158 169 8 8 31 32 50 53
20 20 41 37 48 37 7 0 16 9 19 21 4 11 17 25 31 31 13 6 21 15 18 19 -5 8 17
14 39 10 4 0 7 8 7 19 0 11 7 20 16 20 8 0 13 4 10 9 -3 5 1 11 9 15 8 3 15
12 15 21 0 8 3 15 8 15 4 0 29 20 56 45 26 25 45 45 42 45 -4 0 10 16 30 35
19 19 40 35 45 35 5 0 12 6 15 14 3 8 12 12 20 9 10 -4 14 3 14 21 0 16 6 26
15 26 8 0 15 7 15 15 0 8 7 15 15 15 8 0 15 5 15 10 0 6 7 10 15 10 9 0 18 6
21 14 3 8 15 16 26 19 11 3 18 10 15 14 -6 9 56 83 68 83 9 0 35 27 35 37 1 9
46 63 54 63 3 0 46 41 96 91 58 57 97 89 106 85 13 -5 16 -2 18 26 1 15 99
108 114 108 7 0 12 7 12 16 0 9 11 27 25 40 43 40 34 59 -98 196 -197 204
-424 438 -646 663 -261 267 -528 542 -796 819 -115 120 -247 255 -292 299 -45
44 -79 85 -76 91 3 6 2 8 -2 3 -12 -10 -66 43 -58 57 3 6 3 8 -2 4 -4 -4 -33
19 -64 51 -31 32 -176 181 -322 332 -147 151 -308 317 -359 369 -51 52 -183
187 -294 300 -110 113 -320 329 -466 479 -146 151 -281 290 -300 309 -31 31
-32 33 -7 18 16 -10 27 -12 27 -6 0 19 -30 42 -46 36 -8 -3 -13 -2 -10 3 3 5
-10 22 -29 38 -19 17 -35 35 -35 42 0 6 -4 11 -9 11 -14 0 -61 45 -61 59 0 6
-7 11 -15 11 -8 0 -15 7 -15 15 0 8 -5 15 -11 15 -13 0 -76 68 -95 103 -8 15
-21 27 -30 27 -8 0 -13 4 -9 9 3 5 -4 12 -15 16 -11 3 -20 15 -20 25 0 13 -5
17 -15 14 -11 -4 -15 0 -15 16 0 16 -4 20 -15 16 -9 -3 -15 0 -15 9 0 8 -5 15
-11 15 -6 0 -41 33 -79 73 -37 39 -88 94 -114 120 -25 27 -46 55 -46 63 0 8
-7 14 -16 12 -10 -2 -23 9 -33 29 -9 19 -24 33 -34 33 -11 0 -23 12 -30 30 -6
17 -16 30 -22 30 -5 0 -69 61 -140 135 -72 74 -177 184 -235 244 -58 60 -114
120 -126 133 -11 13 -37 37 -57 55 -20 17 -37 36 -37 42 0 6 -4 11 -10 11 -5
0 -10 6 -10 13 0 6 -14 21 -30 32 -16 11 -30 23 -30 28 0 4 -6 7 -12 7 -18 1
-68 69 -68 92 0 14 -5 18 -17 14 -24 -8 -44 6 -46 33 -1 13 -6 20 -14 17 -7
-3 -13 -1 -13 4 0 6 -7 10 -15 10 -8 0 -15 6 -15 13 0 7 -14 23 -30 36 -17 12
-28 26 -25 31 3 5 -4 11 -15 15 -16 5 -19 12 -14 27 5 17 3 20 -10 15 -10 -4
-24 2 -36 16 -25 29 -168 183 -202 219 -16 16 -28 33 -28 38 0 6 -7 10 -15 10
-8 0 -15 7 -15 15 0 8 -6 15 -14 15 -8 0 -16 10 -18 23 -2 12 -8 22 -14 22
-17 0 -129 117 -129 135 0 8 -9 15 -20 15 -19 0 -105 80 -105 97 0 5 -4 8 -10
8 -10 0 -48 35 -52 48 -1 4 -15 18 -30 30 -16 13 -26 27 -23 31 2 5 -7 14 -21
22 -15 7 -30 24 -35 36 -5 13 -15 23 -24 23 -8 0 -15 7 -15 15 0 8 -4 15 -8
15 -14 0 -152 144 -152 158 0 6 -5 12 -11 12 -13 0 -33 20 -42 43 -3 9 -12 17
-20 17 -7 0 -33 23 -57 51 -25 28 -62 67 -82 87 -21 19 -35 39 -32 43 3 5 -2
9 -10 9 -19 0 -53 32 -58 55 -1 9 -7 17 -13 18 -16 3 -115 103 -115 116 0 6
-7 11 -15 11 -8 0 -20 10 -26 23 -16 29 -66 77 -73 70 -3 -4 -6 0 -6 7 0 7
-20 33 -45 57 -25 23 -45 47 -45 53 0 5 -7 10 -15 10 -9 0 -12 6 -9 15 4 9 0
15 -10 15 -18 0 -49 28 -59 53 -3 9 -13 17 -21 17 -9 0 -18 11 -22 24 -3 13
-14 26 -25 29 -10 3 -19 12 -19 20 0 8 -9 17 -20 20 -11 3 -20 11 -20 19 -1 7
-19 25 -40 40 -22 15 -40 35 -40 43 0 8 -6 15 -13 15 -11 0 -67 55 -67 67 0 2
-11 14 -25 27 -14 13 -25 28 -25 35 0 6 -9 11 -20 11 -11 0 -20 6 -20 14 0 8
-7 17 -16 20 -9 4 -14 13 -10 21 3 8 0 15 -7 15 -7 0 -29 14 -50 31 -29 24
-36 36 -31 52 5 15 3 19 -9 14 -9 -3 -18 1 -21 9 -3 8 -12 14 -21 14 -8 0 -15
4 -15 8 0 4 -42 50 -93 103 -51 52 -92 100 -89 107 2 7 -5 12 -17 12 -14 0
-19 5 -15 15 4 10 0 15 -10 15 -18 0 -37 13 -64 44 -9 11 -28 30 -40 42 -38
36 -43 41 -63 63 -10 12 -19 23 -19 26 0 3 -22 27 -50 53 -27 27 -50 51 -50
54 0 10 -57 65 -75 71 -8 4 -15 13 -15 22 0 8 -5 15 -10 15 -6 0 -9 6 -8 13 2
6 -5 11 -14 9 -11 -2 -18 3 -18 13 0 8 -7 15 -15 15 -8 0 -15 7 -15 15 0 8 -7
15 -15 15 -9 0 -20 11 -25 25 -5 14 -14 25 -20 25 -15 0 -50 33 -50 47 0 7 -7
13 -15 13 -8 0 -15 7 -15 15 0 8 -7 15 -15 15 -8 0 -15 7 -15 15 0 8 -7 15
-15 15 -8 0 -15 6 -15 13 0 6 -13 21 -30 32 -22 15 -28 25 -24 42 5 20 3 23
-17 21 -18 -2 -26 4 -34 28 -5 17 -15 29 -22 27 -7 -3 -18 0 -25 6 -55 46 -77
61 -87 61 -6 0 -11 9 -11 21 0 16 -4 19 -17 15 -21 -8 -123 42 -123 61 0 7 -4
13 -9 13 -13 0 -111 103 -111 117 0 7 -5 13 -11 13 -6 0 -51 40 -100 90 -62
63 -87 94 -83 105 5 11 2 15 -8 13 -17 -3 -128 100 -128 120 0 6 -6 12 -14 12
-7 0 -22 12 -32 26 -10 15 -27 34 -38 43 -10 9 -35 33 -55 55 -20 21 -113 116
-208 211 -94 95 -169 176 -166 179 4 3 2 6 -4 6 -14 0 -93 75 -93 88 0 7 -7
12 -15 12 -9 0 -15 9 -15 21 0 15 -5 19 -15 15 -9 -3 -15 0 -15 8 0 8 -9 20
-21 27 -11 8 -21 23 -23 33 -3 22 -26 35 -26 15 0 -7 -10 -3 -24 10 l-24 22
25 25 c13 13 28 24 33 24 5 0 17 11 26 24 9 15 21 22 30 19 8 -3 14 1 14 11 0
9 5 16 10 16 6 0 10 5 10 10 0 18 39 50 61 50 16 0 19 4 14 20 -5 14 -2 20 9
20 9 0 16 5 16 10 0 6 7 10 16 10 10 0 14 6 10 15 -3 9 0 15 8 15 8 0 16 7 20
15 3 8 15 15 27 15 11 0 19 5 17 12 -5 13 26 48 42 48 6 0 10 6 10 14 0 8 9
17 19 21 11 3 22 12 25 20 3 8 12 15 21 15 8 0 15 7 15 15 0 8 7 15 15 15 8 0
15 5 15 11 0 12 48 66 135 150 119 115 158 149 171 149 8 0 14 5 14 10 0 6 8
20 18 30 18 19 19 19 75 -36 31 -31 57 -59 57 -63 0 -4 11 -13 24 -19 13 -6
37 -29 52 -51 16 -22 32 -41 36 -41 14 0 57 -50 54 -63 -1 -6 -1 -9 1 -5 6 10
43 -24 43 -40 0 -7 8 -16 17 -19 29 -11 333 -318 333 -336 0 -9 7 -17 16 -17
22 0 44 -25 44 -50 0 -15 5 -20 14 -17 17 7 46 -23 46 -47 0 -12 5 -16 15 -12
18 6 55 -27 55 -49 0 -8 6 -15 14 -15 8 0 16 -7 20 -15 3 -8 12 -15 21 -15 8
0 15 -9 15 -20 0 -11 5 -20 10 -20 6 0 10 -9 10 -20 0 -13 5 -17 14 -14 14 6
56 -28 56 -45 0 -5 11 -12 25 -15 14 -4 25 -11 25 -17 0 -5 38 -48 85 -94 47
-47 85 -91 85 -100 0 -8 5 -15 11 -15 6 0 16 -6 23 -12 8 -7 23 -20 35 -28 11
-8 21 -18 21 -23 0 -5 7 -15 15 -24 8 -8 13 -19 10 -24 -4 -5 3 -9 13 -9 12 0
72 -53 154 -136 73 -75 163 -167 201 -205 37 -38 67 -73 67 -79 0 -6 7 -13 16
-17 22 -8 93 -85 94 -100 0 -7 4 -13 9 -13 13 0 81 -65 81 -78 0 -5 7 -12 15
-16 8 -3 15 -12 15 -21 0 -9 9 -15 21 -15 12 0 23 -8 26 -20 3 -11 11 -20 18
-20 8 0 16 -9 20 -19 3 -11 17 -26 30 -35 14 -9 25 -26 25 -37 0 -12 5 -19 12
-17 12 4 133 -114 248 -241 30 -34 62 -61 72 -61 11 0 15 -6 11 -20 -4 -14 0
-20 12 -20 11 0 15 -5 11 -15 -3 -9 0 -15 10 -15 19 0 184 -160 184 -177 0 -7
4 -13 9 -13 15 0 71 -53 71 -67 0 -7 5 -13 10 -13 6 0 10 -7 10 -15 0 -8 4
-15 10 -15 13 0 55 -35 109 -94 25 -27 79 -82 119 -124 39 -41 72 -81 72 -89
0 -7 10 -17 23 -22 26 -10 177 -154 177 -169 0 -5 7 -12 15 -16 8 -3 15 -12
15 -21 0 -8 8 -15 18 -15 17 0 72 -60 72 -79 0 -6 7 -11 16 -11 11 0 15 -6 11
-19 -3 -13 0 -18 7 -15 13 5 216 -190 216 -207 0 -5 6 -12 14 -15 8 -3 16 -14
19 -25 3 -11 11 -18 19 -17 7 2 12 -3 10 -9 -1 -7 4 -13 11 -13 17 0 59 -44
50 -53 -3 -4 -1 -7 5 -7 18 0 51 -41 45 -56 -4 -10 3 -14 21 -14 14 0 26 -4
26 -10 0 -12 37 -50 49 -50 5 0 19 -16 32 -35 13 -19 27 -35 32 -35 4 0 7 -7
7 -15 0 -9 8 -19 18 -22 23 -9 43 -29 35 -37 -3 -3 6 -10 21 -15 14 -6 26 -17
26 -26 0 -8 7 -15 15 -15 9 0 12 -6 9 -15 -4 -10 0 -15 10 -15 9 0 19 -7 22
-15 4 -8 11 -15 16 -15 17 0 76 -73 71 -87 -3 -7 2 -13 11 -13 21 0 96 -68 96
-87 0 -7 5 -13 10 -13 10 0 50 -36 50 -45 0 -9 40 -45 50 -45 6 0 10 -9 10
-21 0 -11 5 -17 10 -14 5 3 10 -1 10 -9 0 -9 6 -16 13 -16 16 0 77 -64 77 -80
0 -6 8 -14 17 -17 24 -10 183 -174 183 -190 0 -7 6 -13 13 -13 14 0 77 -66 77
-81 0 -5 4 -9 10 -9 5 0 37 -30 72 -67 35 -36 96 -99 136 -138 39 -40 72 -78
72 -85 0 -7 7 -10 15 -6 17 6 21 -9 5 -19 -20 -12 -9 -25 15 -19 18 4 25 2 25
-8 0 -8 11 -20 25 -26 14 -7 29 -20 32 -29 4 -10 29 -38 56 -63 28 -25 55 -51
61 -58 6 -7 19 -22 29 -33 9 -10 17 -23 17 -29 0 -5 7 -10 15 -10 8 0 15 -7
15 -15 0 -8 7 -15 16 -15 10 0 14 -6 10 -15 -3 -9 0 -15 8 -15 8 0 16 -9 19
-20 3 -11 13 -20 22 -20 11 0 15 -5 11 -15 -3 -8 -2 -14 2 -14 20 3 32 -3 32
-16 0 -8 5 -15 10 -15 6 0 10 -7 10 -15 0 -8 9 -15 20 -15 11 0 20 -3 20 -7 0
-5 29 -28 65 -52 36 -24 62 -47 59 -52 -3 -5 2 -9 10 -9 8 0 35 -11 58 -24 24
-13 58 -27 75 -31 18 -3 35 -11 38 -16 4 -5 15 -9 25 -9 10 0 20 -4 22 -8 2
-4 37 -17 79 -28 92 -24 338 -29 361 -6 6 6 31 12 55 12 32 0 43 4 43 15 0 17
31 20 47 4 7 -7 12 -3 17 15 3 14 13 26 22 26 8 0 17 7 20 15 4 8 17 15 30 15
13 0 24 4 24 10 0 10 67 80 76 80 3 0 18 12 34 28 16 15 49 45 74 67 25 22 65
59 90 83 24 23 49 42 55 42 6 0 11 4 11 8 0 5 11 14 25 20 14 6 25 16 25 22 0
14 37 50 44 43 3 -4 6 1 6 10 0 10 8 17 20 17 13 0 20 7 20 20 0 11 6 20 14
20 8 0 16 3 18 8 2 4 39 39 83 78 44 38 102 91 128 117 26 26 54 47 62 47 8 0
15 5 15 10 0 19 71 82 86 76 8 -3 14 0 14 8 0 16 62 86 76 86 5 0 39 29 74 65
36 35 71 64 78 65 6 0 12 4 12 9 0 4 16 23 36 42 20 19 43 42 52 52 9 9 22 17
29 17 14 0 63 47 56 54 -3 2 21 24 52 48 32 24 79 64 105 91 26 26 54 47 63
47 11 0 17 8 17 21 0 16 4 19 20 14 16 -5 20 -2 20 19 0 16 7 27 20 31 11 3
20 10 20 15 0 5 22 22 50 38 27 16 47 31 44 35 -7 7 76 88 134 130 23 17 42
33 42 37 0 7 45 64 77 97 11 12 24 36 28 53 4 17 13 34 21 37 8 3 14 16 14 28
0 13 5 27 10 30 6 3 10 22 10 41 0 19 3 33 8 31 9 -6 8 250 -1 259 -4 4 -1 14
6 22 9 13 9 14 0 8 -9 -5 -13 0 -13 18 0 14 -4 28 -10 31 -5 3 -10 19 -10 36
0 16 -4 29 -9 29 -5 0 -12 20 -15 44 -4 24 -13 47 -21 50 -8 3 -15 17 -15 31
0 14 -4 25 -10 25 -5 0 -10 6 -10 13 0 8 -9 22 -20 32 -11 10 -20 22 -20 27 0
20 -64 100 -167 206 -40 41 -70 80 -66 86 3 6 3 8 -1 5 -12 -11 -393 378 -388
396 2 5 1 7 -3 3 -8 -8 -59 40 -68 65 -3 9 -14 17 -22 17 -9 0 -13 5 -10 10 3
6 -5 14 -20 20 -14 5 -29 18 -32 27 -4 10 -20 30 -35 45 -16 16 -26 32 -23 37
3 5 -4 11 -16 13 -12 2 -27 12 -33 23 -6 11 -16 24 -23 28 -32 20 -121 115
-127 135 -4 12 -11 20 -15 17 -10 -5 -201 190 -201 205 0 5 -5 10 -10 10 -12
0 -70 54 -70 65 0 4 -18 25 -41 46 -22 21 -38 43 -34 49 3 5 -2 10 -13 10 -20
0 -75 54 -65 64 4 3 0 6 -7 6 -16 0 -129 120 -130 138 0 6 -9 12 -20 12 -11 0
-20 4 -20 8 0 4 -20 29 -45 54 -25 26 -45 54 -45 62 0 9 -6 16 -14 16 -16 0
-76 59 -76 75 0 5 -10 15 -22 20 -13 6 -29 22 -35 36 -7 15 -24 30 -38 33 -14
4 -25 11 -25 16 0 6 -38 49 -85 95 -47 47 -85 90 -85 95 0 6 -4 10 -10 10 -5
0 -10 7 -10 15 0 8 -6 15 -12 15 -7 0 -26 14 -42 30 -16 17 -33 30 -38 30 -4
0 -8 7 -8 15 0 8 -7 15 -15 15 -8 0 -15 5 -15 10 0 6 -19 29 -43 53 -24 23
-46 50 -50 60 -3 9 -11 17 -16 17 -20 0 -63 49 -55 62 4 7 4 10 0 6 -9 -8
-146 123 -146 140 0 6 -7 12 -15 12 -8 0 -15 7 -15 15 0 8 -4 15 -10 15 -11 0
-50 36 -50 48 -1 4 -15 18 -31 32 -55 45 -159 150 -159 160 0 5 -4 10 -9 10
-6 0 -29 21 -53 47 -24 26 -57 61 -74 77 -17 17 -34 39 -37 49 -4 9 -10 16
-14 15 -10 -4 -53 39 -53 52 0 6 -7 10 -16 10 -8 0 -13 4 -9 9 3 5 -3 12 -13
15 -10 4 -25 17 -32 31 -7 14 -21 27 -32 31 -10 3 -18 9 -18 14 0 5 -56 65
-125 134 -69 69 -125 132 -125 141 0 8 -7 15 -15 15 -8 0 -15 3 -15 8 0 11
-88 102 -100 102 -5 0 -10 7 -10 15 0 8 -7 15 -15 15 -8 0 -15 6 -15 13 -1 6
-14 23 -30 37 -17 13 -30 32 -30 42 0 10 -6 18 -14 18 -16 0 -76 55 -101 94
-10 14 -23 26 -30 26 -8 0 -17 10 -21 23 -4 12 -31 46 -60 74 -30 29 -54 57
-54 63 0 5 -6 10 -12 10 -7 0 -22 13 -33 29 -11 17 -28 32 -39 35 -11 3 -17 8
-14 11 3 4 -32 43 -78 88 -58 56 -84 88 -84 105 0 13 -4 21 -9 18 -8 -5 -131
104 -131 116 0 3 -54 60 -120 128 -66 67 -120 126 -120 130 0 4 -20 25 -45 46
-25 22 -45 43 -45 48 0 4 -11 17 -25 28 -14 11 -25 25 -25 33 0 7 -12 16 -26
19 -17 5 -24 12 -20 21 3 8 1 15 -4 15 -14 0 -50 42 -44 52 3 4 -1 8 -8 8 -16
1 -68 46 -68 60 0 5 -7 10 -15 10 -8 0 -15 5 -15 11 0 7 -11 22 -25 35 -14 13
-25 28 -25 34 0 5 -7 10 -15 10 -9 0 -15 9 -15 21 0 15 -5 19 -15 15 -9 -3
-15 0 -15 10 0 8 -7 17 -15 20 -8 4 -15 12 -15 20 0 8 -4 14 -9 14 -14 0 -141
126 -141 139 0 6 -7 11 -15 11 -9 0 -19 10 -24 23 -5 12 -21 31 -35 41 -14 10
-26 25 -26 32 0 8 -7 14 -15 14 -8 0 -15 5 -15 11 0 5 -28 38 -62 71 -35 34
-62 68 -60 75 2 7 -6 13 -16 13 -10 0 -24 11 -30 25 -6 14 -18 25 -26 25 -7 0
-21 10 -29 23 -8 12 -48 56 -89 98 -89 92 -144 158 -141 170 2 5 -3 9 -10 9
-15 1 -67 45 -67 58 0 5 -11 15 -25 22 -14 7 -25 17 -25 22 0 5 -28 35 -61 68
-37 35 -58 63 -54 70 4 7 2 10 -7 8 -7 -2 -13 0 -13 3 0 5 -56 63 -192 202
-31 31 -60 57 -65 57 -4 0 -8 9 -8 20 0 11 -5 20 -10 20 -16 0 -130 118 -130
135 0 7 -9 17 -20 20 -11 4 -18 11 -15 16 4 5 -1 12 -10 15 -9 4 -14 13 -11
20 4 10 -3 14 -20 14 -18 0 -25 4 -21 14 3 8 -2 16 -15 19 -15 4 -18 11 -13
26 5 16 3 20 -9 15 -11 -4 -37 15 -81 62 -36 38 -65 74 -65 81 0 7 -6 13 -13
13 -18 0 -63 49 -72 78 -3 12 -13 22 -21 22 -8 0 -14 4 -14 9 0 5 -9 13 -20
16 -11 3 -20 13 -20 21 0 8 -5 14 -11 14 -6 0 -9 7 -5 15 3 9 0 15 -10 15 -19
0 -114 100 -114 121 0 5 -8 9 -18 9 -10 0 -26 14 -35 30 -10 17 -24 30 -31 30
-7 0 -19 12 -26 26 -8 14 -22 30 -32 35 -10 5 -18 14 -18 19 0 5 -36 46 -81
92 -45 46 -104 107 -132 136 -27 28 -54 52 -59 52 -4 0 -8 4 -8 10 0 5 -22 32
-50 60 -27 28 -50 57 -50 65 0 8 -9 15 -20 15 -11 0 -20 7 -20 15 0 9 -7 18
-15 21 -10 4 -14 14 -10 28 2 11 2 16 -1 9 -3 -7 -12 -9 -20 -6 -7 3 -11 9 -8
14 3 5 1 9 -4 9 -5 0 -43 34 -83 77 -41 42 -89 91 -106 108 -18 18 -33 37 -33
44 0 6 -6 11 -14 11 -7 0 -21 15 -29 33 -14 29 -49 67 -62 67 -9 0 -45 40 -45
49 0 5 -7 11 -15 15 -8 3 -15 12 -15 21 0 8 -5 15 -10 15 -14 0 -150 135 -150
149 0 6 -4 11 -10 11 -5 0 -10 7 -10 15 0 8 -9 15 -20 15 -11 0 -20 7 -20 15
0 8 -7 15 -15 15 -7 0 -18 6 -22 13 -4 7 -24 24 -43 37 -41 29 -55 40 -78 60
-10 8 -41 26 -70 40 -28 14 -52 28 -52 32 0 5 -7 8 -15 8 -8 0 -15 4 -15 9 0
5 -17 12 -37 15 -42 7 -103 36 -103 48 0 5 -9 8 -21 8 -13 0 -18 4 -13 13 4 6
4 9 0 6 -4 -4 -34 -1 -67 7 -34 8 -64 12 -69 9 -5 -3 -11 -2 -14 3 -8 13 -283
12 -351 -1z m-2992 -9387 c7 -18 19 -30 29 -30 10 0 18 -4 18 -9 0 -5 29 -37
65 -72 36 -34 63 -65 60 -67 -3 -3 9 -13 25 -23 17 -11 30 -26 30 -34 0 -8 7
-15 15 -15 15 0 82 -77 78 -91 -2 -5 2 -9 8 -9 10 0 58 -41 97 -83 9 -10 63
-66 119 -124 56 -59 100 -110 97 -115 -3 -4 0 -8 5 -8 18 0 101 -74 101 -90 0
-5 4 -10 10 -10 5 0 65 -57 134 -127 177 -183 186 -193 186 -203 0 -6 4 -10
10 -10 9 0 49 -39 164 -159 32 -33 62 -61 67 -61 5 0 9 -11 9 -25 0 -19 5 -25
21 -25 11 0 17 -4 14 -10 -3 -5 -2 -10 4 -10 5 0 26 -16 47 -35 20 -19 41 -35
45 -35 5 0 9 -4 9 -8 0 -5 57 -68 128 -140 70 -72 150 -156 177 -186 28 -30
55 -55 60 -56 14 0 46 -55 38 -64 -3 -3 1 -6 10 -6 13 0 73 -58 193 -184 5 -6
13 -19 17 -28 3 -10 14 -18 22 -18 9 0 13 -5 10 -11 -4 -6 2 -13 14 -16 12 -3
21 -12 21 -19 0 -8 7 -14 15 -14 8 0 15 -7 15 -15 0 -8 7 -15 15 -15 8 0 15
-7 15 -15 0 -8 7 -15 15 -15 8 0 15 -7 15 -15 0 -8 6 -15 13 -15 6 -1 26 -19
42 -40 17 -21 35 -39 40 -40 6 0 22 -18 35 -40 14 -22 28 -40 31 -40 10 0 89
-77 89 -86 0 -6 13 -21 30 -34 16 -14 29 -31 30 -37 0 -7 4 -13 9 -13 14 0
111 -95 111 -108 0 -7 5 -12 11 -12 13 0 69 -58 69 -71 0 -5 6 -9 13 -9 8 0
19 -11 26 -24 7 -13 26 -34 42 -45 16 -12 29 -27 29 -34 1 -7 15 -21 33 -33
18 -11 31 -26 30 -32 -2 -7 1 -12 6 -12 13 0 61 -47 54 -54 -3 -3 3 -9 13 -13
10 -4 29 -18 41 -32 12 -15 27 -30 33 -36 6 -5 32 -32 58 -59 26 -27 75 -77
110 -111 34 -35 62 -67 62 -72 0 -5 14 -19 30 -32 17 -12 28 -26 25 -32 -4 -5
-2 -8 3 -7 12 3 142 -127 142 -142 0 -6 5 -10 11 -10 14 0 39 -25 39 -39 0 -6
5 -11 10 -11 6 0 19 -9 30 -20 11 -11 20 -24 20 -30 0 -5 4 -10 9 -10 6 0 43
-34 83 -76 40 -43 85 -89 101 -104 15 -15 27 -32 27 -39 0 -6 7 -11 15 -11 8
0 15 -4 15 -8 0 -13 106 -122 119 -122 6 0 11 -7 11 -15 0 -8 7 -15 16 -15 8
0 12 -5 9 -10 -3 -6 1 -13 11 -17 17 -6 144 -130 144 -140 0 -3 23 -27 50 -53
28 -26 50 -52 50 -59 0 -6 4 -11 8 -11 17 0 84 -68 78 -79 -4 -6 1 -14 11 -18
25 -9 112 -95 113 -110 0 -7 4 -13 10 -13 5 0 25 -17 45 -37 75 -80 89 -93 97
-93 4 0 8 -6 8 -13 0 -7 14 -23 30 -35 17 -13 30 -28 30 -35 0 -7 10 -17 23
-22 12 -6 21 -17 19 -24 -1 -7 1 -10 6 -8 4 3 46 -35 92 -84 47 -50 147 -153
223 -230 75 -77 137 -144 137 -148 0 -5 16 -19 35 -32 19 -13 35 -30 35 -36 0
-7 6 -13 14 -13 14 0 52 -49 48 -62 -1 -4 7 -9 17 -13 10 -3 23 -16 30 -28 7
-13 22 -27 34 -32 12 -6 26 -20 32 -32 5 -13 13 -23 18 -23 4 0 19 -12 33 -27
14 -16 44 -48 68 -73 23 -25 41 -51 38 -58 -2 -7 5 -12 17 -12 14 0 19 -5 15
-15 -4 -10 0 -15 13 -15 19 0 53 -32 53 -50 0 -6 7 -10 15 -10 8 0 28 -13 43
-30 16 -16 34 -30 39 -30 5 0 18 -9 28 -20 10 -11 24 -20 31 -20 8 0 11 -6 8
-15 -5 -12 2 -15 29 -15 27 0 42 -8 66 -35 17 -19 35 -35 41 -35 5 0 10 -7 10
-16 0 -8 4 -13 8 -10 10 6 52 -47 52 -64 0 -5 7 -10 15 -10 8 0 15 -7 15 -15
0 -8 7 -15 15 -15 8 0 15 -7 15 -15 0 -8 5 -15 10 -15 10 0 64 -53 148 -144
23 -25 47 -46 52 -46 5 0 7 -7 4 -15 -4 -10 0 -15 15 -15 12 0 21 -6 21 -15 0
-8 7 -15 16 -15 11 0 15 -6 11 -20 -4 -15 0 -20 14 -20 10 0 19 -7 19 -15 0
-8 6 -15 13 -15 17 0 52 -42 49 -57 -2 -8 7 -13 23 -13 14 0 25 -3 25 -8 0 -4
33 -41 74 -83 41 -42 73 -79 70 -82 -3 -3 4 -8 16 -12 16 -5 19 -12 14 -27 -5
-18 -3 -20 15 -15 12 3 19 1 16 -3 -3 -5 4 -11 15 -15 11 -3 19 -9 19 -13 -3
-20 2 -32 12 -27 13 9 49 -28 49 -50 0 -8 5 -15 12 -15 6 0 38 -28 71 -62 32
-35 84 -89 114 -120 35 -37 49 -58 39 -58 -9 0 -16 -7 -16 -15 0 -8 -9 -15
-20 -15 -11 0 -20 -7 -20 -15 0 -8 -7 -15 -15 -15 -8 0 -15 -6 -15 -12 0 -7
-16 -24 -35 -37 -19 -13 -35 -30 -35 -37 0 -8 -9 -14 -20 -14 -11 0 -20 -6
-20 -14 0 -8 -7 -17 -16 -20 -8 -3 -12 -10 -9 -16 3 -5 -3 -10 -14 -10 -12 0
-21 -6 -21 -12 0 -7 -26 -35 -56 -63 -31 -27 -119 -111 -195 -185 -300 -294
-343 -332 -359 -322 -8 5 -16 19 -18 31 -2 11 -10 21 -18 21 -8 0 -36 22 -62
49 -98 103 -142 153 -142 162 0 5 -5 9 -10 9 -13 0 -70 54 -70 67 0 5 -11 16
-25 23 -14 7 -25 16 -25 19 0 3 -63 71 -140 151 -77 80 -140 151 -140 159 0 8
-6 11 -15 7 -8 -3 -15 0 -15 6 0 12 -38 48 -52 48 -4 0 -8 6 -8 13 0 8 -11 20
-25 27 -14 7 -25 19 -25 27 0 7 -6 13 -12 13 -7 1 -22 12 -33 26 -11 14 -67
74 -125 134 -58 59 -114 118 -125 131 -11 13 -42 43 -68 66 -25 24 -54 54 -63
68 -9 14 -23 25 -31 25 -9 0 -13 6 -9 15 3 8 1 15 -3 15 -14 0 -91 72 -91 84
0 6 -12 19 -28 30 -15 10 -40 36 -57 57 -16 21 -34 38 -39 39 -9 0 -266 259
-266 267 0 8 -103 103 -112 103 -4 0 -8 5 -8 10 0 6 -20 31 -45 57 -25 25 -45
51 -45 59 0 8 -4 14 -10 14 -17 0 -100 83 -93 93 4 6 1 7 -6 3 -8 -5 -14 0
-18 13 -3 12 -12 21 -20 21 -8 0 -11 5 -8 11 4 6 -2 13 -14 16 -13 3 -20 12
-19 22 2 10 -3 15 -14 13 -11 -2 -18 3 -18 13 0 8 -7 15 -15 15 -8 0 -15 7
-15 15 0 8 -7 15 -15 15 -8 0 -15 4 -15 10 0 12 -118 130 -130 130 -5 0 -12 9
-15 20 -3 11 -11 20 -16 20 -5 0 -12 7 -15 15 -3 8 -35 43 -70 78 -35 36 -64
69 -64 76 0 6 -7 11 -15 11 -10 0 -15 7 -13 18 2 11 -3 16 -13 14 -9 -1 -19 4
-23 13 -3 8 -12 15 -21 15 -8 0 -15 5 -15 11 0 6 -11 20 -25 31 -14 11 -25 26
-25 34 0 8 -7 14 -15 14 -8 0 -15 4 -15 9 0 11 -58 71 -69 71 -5 0 -12 8 -16
18 -3 11 -17 24 -30 30 -14 6 -25 16 -25 22 0 5 -34 44 -75 85 -41 42 -75 79
-75 83 -1 4 -19 21 -40 37 -21 17 -39 33 -40 36 0 3 -52 59 -115 125 -63 65
-127 133 -142 151 -15 18 -38 37 -49 42 -12 5 -28 23 -35 40 -8 17 -19 31 -25
31 -12 0 -48 39 -57 63 -3 9 -11 17 -17 17 -13 0 -110 97 -110 110 0 6 -5 10
-11 10 -6 0 -28 19 -47 41 -20 23 -54 60 -74 83 -21 22 -38 44 -38 48 0 5 -7
8 -15 8 -8 0 -15 4 -15 8 0 11 -120 132 -131 132 -5 0 -9 7 -9 15 0 8 -7 15
-15 15 -8 0 -15 7 -15 15 0 8 -6 15 -14 15 -9 0 -12 7 -9 21 5 18 3 20 -16 14
-15 -5 -21 -2 -21 9 0 9 -4 16 -10 16 -14 0 -110 101 -110 116 0 6 -9 14 -20
17 -11 3 -20 12 -20 21 0 9 -4 16 -10 16 -11 0 -50 36 -50 46 0 9 -141 144
-151 144 -5 0 -9 5 -9 10 0 6 -15 25 -34 43 -18 17 -41 44 -51 60 -9 15 -21
27 -26 27 -10 0 -69 57 -69 65 0 3 -15 20 -34 38 -19 17 -40 45 -46 61 -9 23
-13 26 -25 16 -15 -13 -21 -3 -15 25 1 6 -1 7 -5 4 -3 -4 -36 24 -73 61 -162
163 -252 259 -252 270 0 6 -4 9 -9 6 -4 -3 -20 8 -35 24 -14 17 -23 30 -19 30
5 0 -5 8 -22 18 -16 10 -36 31 -44 45 -8 15 -21 29 -30 32 -9 3 -25 18 -36 35
-11 16 -26 30 -32 30 -7 0 -13 7 -13 15 0 9 -7 18 -15 21 -8 4 -15 13 -15 20
0 8 -7 17 -16 21 -23 8 -104 95 -104 110 0 7 -4 12 -8 11 -12 -4 -152 134
-152 150 0 6 -7 12 -15 12 -8 0 -15 7 -15 15 0 8 -5 15 -11 15 -14 0 -48 41
-49 59 0 8 -7 11 -20 8 -11 -3 -20 -1 -20 4 0 15 -54 59 -72 59 -10 0 -18 7
-18 15 0 8 -7 15 -15 15 -8 0 -15 7 -15 15 0 9 -10 15 -26 15 -35 0 -84 30
-84 52 0 10 -5 18 -11 18 -16 0 -79 62 -79 78 0 7 -8 16 -17 19 -20 7 -53 42
-53 55 0 4 -4 8 -10 8 -15 0 -50 38 -50 55 0 8 -7 15 -15 15 -9 0 -27 12 -41
28 -14 15 -65 68 -114 119 -50 50 -90 96 -90 102 0 6 -5 11 -11 11 -11 0 -239
226 -239 236 0 9 -45 49 -52 47 -5 -2 -8 4 -8 12 0 8 -4 15 -9 15 -14 0 -100
93 -101 108 0 6 -5 12 -10 12 -13 0 -100 86 -100 98 0 5 -12 15 -26 23 -14 7
-30 24 -35 36 -5 13 -15 23 -24 23 -8 0 -15 6 -15 14 0 8 -6 17 -12 19 -8 4
-7 6 3 6 9 1 19 8 23 16 3 8 12 15 21 15 8 0 15 7 15 15 0 8 7 15 15 15 8 0
15 6 15 13 0 14 27 40 53 50 9 3 17 13 17 22 0 9 9 15 21 15 15 0 19 5 15 15
-4 10 1 15 15 15 14 0 19 5 16 14 -4 9 3 16 20 21 14 3 23 9 19 12 -7 7 41 53
55 53 6 0 8 4 5 8 -3 5 6 16 19 26 13 10 99 92 191 182 92 90 168 164 170 164
2 0 19 17 40 38 20 20 46 37 57 37 13 0 22 7 23 15 2 53 40 66 57 20z"/>
<path d="M3178 13845 c-309 -42 -566 -135 -808 -292 -496 -322 -783 -831 -887
-1573 -25 -177 -24 -646 1 -850 40 -330 119 -616 232 -843 153 -305 427 -554
829 -752 83 -41 371 -165 640 -276 658 -270 778 -328 886 -434 178 -173 221
-365 221 -980 1 -437 -21 -644 -85 -815 -79 -209 -227 -340 -452 -402 -71 -19
-105 -22 -305 -22 -218 0 -228 1 -315 28 -49 15 -116 42 -149 59 -161 86 -298
285 -357 519 -18 70 -22 123 -26 346 l-5 262 -599 0 -599 0 0 -262 c0 -289 10
-429 41 -588 62 -319 227 -652 449 -908 243 -280 617 -504 1007 -602 197 -50
342 -63 627 -57 262 5 392 20 571 67 436 115 799 373 1028 731 100 157 197
389 253 604 83 321 116 632 117 1070 0 604 -54 998 -177 1305 -145 361 -403
628 -798 826 -71 36 -384 166 -696 290 -576 229 -728 297 -843 375 -177 120
-267 271 -301 505 -20 141 -17 624 5 749 25 143 53 238 96 330 75 158 175 261
326 335 103 51 202 70 359 70 374 0 593 -140 730 -467 74 -175 106 -374 106
-660 l0 -143 601 0 601 0 -5 383 c-4 328 -7 398 -25 497 -70 389 -244 721
-527 1005 -310 312 -701 508 -1135 570 -131 18 -495 18 -632 0z"/>
<path d="M7690 13784 c0 -3 -416 -1873 -925 -4154 -509 -2281 -925 -4153 -925
-4159 0 -8 163 -11 599 -11 l599 0 82 423 c46 232 124 634 175 892 l92 470
806 3 c761 2 806 1 811 -15 3 -10 80 -400 171 -868 91 -467 169 -860 172 -872
l5 -23 599 0 c329 0 599 3 599 6 0 3 -414 1862 -921 4132 -506 2270 -923 4139
-926 4155 l-5 27 -504 0 c-277 0 -504 -3 -504 -6z m794 -3886 c159 -821 291
-1499 294 -1505 3 -10 -119 -13 -588 -13 l-592 0 5 23 c8 30 577 2972 577
2980 0 4 3 7 8 7 4 0 137 -672 296 -1492z"/>
<path d="M11130 9630 l0 -4161 1013 4 c1088 4 1048 2 1317 57 223 47 497 153
669 261 179 113 379 305 489 469 194 290 304 639 354 1120 19 186 19 4422 0
4595 -63 565 -233 956 -557 1281 -278 279 -599 431 -1075 511 -94 15 -213 17
-1157 20 l-1053 4 0 -4161z m1988 3015 c320 -52 495 -200 596 -505 75 -227 71
-77 71 -2505 0 -2299 1 -2255 -46 -2440 -89 -349 -270 -518 -624 -580 -65 -12
-187 -18 -437 -22 l-348 -6 0 3036 0 3037 348 0 c262 0 370 -4 440 -15z"/>
<path d="M17270 13784 c0 -3 -416 -1873 -925 -4154 -509 -2281 -925 -4150
-925 -4154 0 -5 1200 -9 1200 -3 0 1 78 400 174 887 l173 885 806 3 c761 2
806 1 811 -15 3 -10 80 -400 171 -868 91 -467 169 -860 172 -872 l5 -23 599 0
c329 0 599 3 599 6 0 3 -414 1862 -921 4132 -506 2270 -923 4139 -926 4155
l-5 27 -504 0 c-277 0 -504 -3 -504 -6z m794 -3886 c159 -821 291 -1499 294
-1505 3 -10 -119 -13 -588 -13 l-592 0 5 23 c8 30 577 2972 577 2980 0 4 3 7
8 7 4 0 137 -672 296 -1492z"/>
<path d="M20710 9630 l0 -4161 1013 4 c1088 4 1048 2 1317 57 223 47 497 153
669 261 179 113 379 305 489 469 194 290 304 639 354 1120 19 186 19 4422 0
4595 -63 565 -233 956 -557 1281 -278 279 -599 431 -1075 511 -94 15 -213 17
-1157 20 l-1053 4 0 -4161z m1988 3015 c320 -52 495 -200 596 -505 75 -227 71
-77 71 -2505 0 -2299 1 -2255 -46 -2440 -89 -349 -270 -518 -624 -580 -65 -12
-187 -18 -437 -22 l-348 -6 0 3036 0 3037 348 0 c262 0 370 -4 440 -15z"/>
<path d="M1603 4390 c-52 -31 -65 -70 -71 -202 l-5 -118 -53 0 -54 0 0 -55 0
-55 55 0 55 0 0 -360 0 -360 60 0 60 0 0 360 0 360 85 0 85 0 0 55 0 55 -85 0
-85 0 0 95 c0 83 3 98 21 116 18 18 30 20 73 16 28 -2 59 -8 69 -12 15 -6 17
0 17 53 0 59 0 60 -31 66 -67 13 -163 7 -196 -14z"/>
<path d="M16130 4390 c-27 -27 -35 -65 -20 -101 15 -35 41 -51 85 -51 44 0 70
16 85 51 26 65 -13 121 -85 121 -31 0 -51 -6 -65 -20z"/>
<path d="M11720 4230 l0 -160 -75 0 -75 0 0 -55 0 -55 75 0 75 0 0 -360 0
-360 55 0 55 0 0 360 0 360 85 0 85 0 0 55 0 55 -85 0 -85 0 0 160 0 160 -55
0 -55 0 0 -160z"/>
<path d="M12705 4366 c-55 -25 -110 -81 -131 -132 -8 -19 -14 -62 -14 -97 0
-128 31 -175 218 -325 207 -166 257 -238 232 -332 -22 -83 -100 -140 -193
-140 -73 0 -135 40 -185 120 -20 32 -43 59 -50 60 -19 0 -92 -48 -92 -62 0
-23 63 -109 116 -157 72 -66 129 -85 243 -79 100 5 145 24 208 87 63 63 87
121 87 211 0 136 -65 227 -275 386 -57 43 -119 94 -137 114 -96 104 -43 250
91 250 66 0 110 -23 164 -86 l46 -53 48 37 c27 20 49 40 49 44 0 5 -30 39 -67
76 -80 81 -129 102 -237 102 -53 0 -84 -6 -121 -24z"/>
<path d="M14360 3815 l0 -575 55 0 55 0 0 575 0 575 -55 0 -55 0 0 -575z"/>
<path d="M15720 4230 l0 -160 -75 0 -75 0 0 -55 0 -55 75 0 75 0 0 -360 0
-360 55 0 55 0 0 360 0 360 85 0 85 0 0 55 0 55 -85 0 -85 0 0 160 0 160 -55
0 -55 0 0 -160z"/>
<path d="M19850 4374 c-103 -27 -180 -73 -261 -153 -119 -119 -169 -241 -169
-415 0 -224 113 -422 296 -518 95 -50 176 -68 309 -68 189 0 312 46 430 162
l70 69 -35 29 c-57 48 -65 47 -123 -7 -101 -95 -196 -133 -336 -133 -174 0
-301 62 -398 193 -63 87 -87 173 -81 297 4 83 10 107 37 166 42 89 87 143 162
193 84 56 170 81 278 81 144 0 238 -36 336 -131 l61 -58 44 35 c25 20 46 39
48 43 1 4 -29 37 -67 73 -75 71 -159 118 -256 143 -76 19 -270 19 -345 -1z"/>
<path d="M22970 4230 l0 -160 -75 0 -75 0 0 -55 0 -55 75 0 75 0 0 -360 0
-360 55 0 55 0 0 360 0 360 85 0 85 0 0 55 0 55 -85 0 -85 0 0 160 0 160 -55
0 -55 0 0 -160z"/>
<path d="M24120 4165 l0 -224 -45 44 c-25 24 -71 56 -103 72 -53 26 -66 28
-177 28 -109 0 -125 -2 -177 -27 -106 -49 -200 -158 -232 -267 -34 -116 -15
-268 45 -363 42 -65 120 -135 187 -166 52 -25 68 -27 177 -27 109 0 125 2 177
27 31 14 77 45 102 68 l46 43 0 -67 0 -66 55 0 55 0 0 575 0 575 -55 0 -55 0
0 -225z m-162 -220 c240 -131 218 -490 -36 -585 -162 -61 -334 14 -410 178
-55 120 -21 265 84 362 71 64 117 80 224 77 72 -3 93 -7 138 -32z"/>
<path d="M5420 3801 l0 -561 60 0 60 0 0 255 c0 197 3 255 13 255 203 8 350
21 389 35 114 40 180 140 180 275 0 130 -57 223 -166 272 -48 21 -66 23 -293
26 l-243 4 0 -561z m480 417 c133 -68 131 -250 -3 -317 -42 -21 -66 -24 -202
-29 l-155 -5 0 187 0 186 158 0 c144 0 162 -2 202 -22z"/>
<path d="M22180 3800 l0 -560 275 0 275 0 0 60 0 60 -215 0 -215 0 0 500 0
500 -60 0 -60 0 0 -560z"/>
<path d="M2235 4076 c-157 -51 -271 -186 -296 -349 -29 -187 70 -381 236 -463
57 -28 66 -29 190 -29 127 0 132 1 196 32 136 67 227 204 236 357 10 145 -29
249 -128 348 -87 88 -147 112 -284 115 -71 2 -124 -2 -150 -11z m238 -112 c61
-20 135 -88 172 -155 37 -68 46 -180 21 -255 -26 -78 -82 -144 -156 -182 -61
-32 -70 -34 -150 -30 -119 4 -196 47 -256 139 -134 210 14 499 257 499 36 0
86 -7 112 -16z"/>
<path d="M3159 4062 c-24 -16 -57 -43 -72 -61 l-27 -33 0 51 0 51 -60 0 -60 0
0 -415 0 -415 59 0 58 0 6 263 c5 279 12 327 60 398 12 18 38 44 57 57 29 20
44 23 86 19 l50 -5 28 44 c16 25 27 46 25 48 -20 17 -57 26 -106 26 -48 0 -68
-6 -104 -28z"/>
<path d="M4123 4072 c-103 -37 -184 -112 -234 -217 -128 -271 36 -594 317
-623 201 -21 354 43 445 187 l29 45 -41 23 c-23 13 -45 23 -51 23 -5 0 -32
-25 -60 -56 -71 -77 -132 -106 -236 -112 -93 -5 -142 8 -211 58 -59 43 -93
103 -115 203 l-6 27 370 0 370 0 0 48 c0 152 -105 315 -243 378 -54 25 -76 29
-172 31 -87 3 -121 0 -162 -15z m261 -109 c65 -24 134 -86 162 -148 13 -27 24
-56 24 -62 0 -10 -66 -13 -295 -13 -196 0 -295 3 -295 10 0 20 31 84 56 117
32 43 85 82 131 99 54 19 159 17 217 -3z"/>
<path d="M6583 4076 c-104 -34 -213 -131 -261 -233 -25 -53 -27 -68 -27 -183
0 -120 1 -127 32 -191 62 -126 198 -226 328 -238 136 -14 247 19 339 100 l46
41 0 -66 0 -66 55 0 55 0 0 415 0 415 -55 0 -55 0 0 -65 0 -64 -45 44 c-25 24
-71 56 -103 72 -50 24 -70 28 -162 30 -68 2 -120 -2 -147 -11z m286 -125 c109
-57 173 -167 173 -300 0 -64 -4 -82 -33 -139 -56 -110 -159 -172 -284 -172
-84 0 -145 23 -205 77 -58 52 -96 119 -111 197 -9 42 -8 65 5 116 29 114 94
191 195 232 65 26 199 21 260 -11z"/>
<path d="M8482 4074 c-23 -9 -67 -38 -97 -66 l-55 -50 0 56 0 56 -60 0 -60 0
0 -415 0 -415 59 0 60 0 3 263 c5 289 10 318 69 390 68 83 206 114 279 65 44
-30 69 -66 80 -114 5 -21 10 -166 10 -321 l0 -283 60 0 60 0 0 223 c0 242 9
315 46 388 56 112 205 164 306 107 84 -47 97 -115 98 -505 l0 -213 55 0 55 0
0 293 c0 322 -7 378 -58 452 -15 22 -50 53 -77 70 -40 25 -61 31 -125 33 -41
2 -94 -1 -116 -7 -58 -16 -131 -67 -172 -122 l-36 -48 -16 37 c-21 47 -67 94
-117 118 -51 25 -191 29 -251 8z"/>
<path d="M9913 4072 c-103 -37 -184 -112 -234 -217 -128 -271 36 -594 317
-623 201 -21 354 43 445 187 l29 45 -41 23 c-23 13 -45 23 -51 23 -5 0 -32
-25 -60 -56 -71 -77 -132 -106 -236 -112 -93 -5 -142 8 -211 58 -59 43 -93
103 -115 203 l-6 27 370 0 370 0 0 48 c0 152 -105 315 -243 378 -54 25 -76 29
-172 31 -87 3 -121 0 -162 -15z m261 -109 c65 -24 134 -86 162 -148 13 -27 24
-56 24 -62 0 -10 -66 -13 -295 -13 -196 0 -295 3 -295 10 0 20 31 84 56 117
32 43 85 82 131 99 54 19 159 17 217 -3z"/>
<path d="M10965 4070 c-28 -11 -77 -43 -108 -71 l-57 -51 0 61 0 61 -60 0 -60
0 0 -415 0 -415 59 0 59 0 4 258 c4 243 5 260 27 309 26 59 101 134 156 157
46 20 145 21 188 2 44 -19 83 -63 103 -116 13 -36 17 -101 21 -327 l6 -283 54
0 55 0 -4 303 c-5 345 -10 372 -80 452 -62 70 -122 95 -228 94 -59 0 -100 -6
-135 -19z"/>
<path d="M13615 4076 c-157 -51 -271 -186 -296 -349 -38 -240 131 -472 359
-495 163 -17 286 23 381 123 74 78 112 164 118 269 10 145 -29 249 -128 348
-87 88 -147 112 -284 115 -71 2 -124 -2 -150 -11z m238 -112 c61 -20 135 -88
172 -155 37 -68 46 -180 21 -255 -26 -78 -82 -144 -156 -182 -61 -32 -70 -34
-150 -30 -119 4 -196 47 -256 139 -134 210 14 499 257 499 36 0 86 -7 112 -16z"/>
<path d="M16725 4076 c-157 -51 -271 -186 -296 -349 -29 -187 70 -381 236
-463 57 -28 66 -29 190 -29 127 0 132 1 196 32 136 67 227 204 236 357 10 145
-29 249 -128 348 -87 88 -147 112 -284 115 -71 2 -124 -2 -150 -11z m238 -112
c61 -20 135 -88 172 -155 37 -68 46 -180 21 -255 -26 -78 -82 -144 -156 -182
-61 -32 -70 -34 -150 -30 -119 4 -196 47 -256 139 -134 210 14 499 257 499 36
0 86 -7 112 -16z"/>
<path d="M17755 4070 c-28 -11 -77 -43 -108 -71 l-57 -51 0 61 0 61 -60 0 -60
0 0 -415 0 -415 59 0 59 0 4 258 c4 243 5 260 27 309 26 59 101 134 156 157
46 20 145 21 188 2 44 -19 83 -63 103 -116 13 -36 17 -101 21 -327 l6 -283 54
0 55 0 -4 303 c-5 345 -10 372 -80 452 -62 70 -122 95 -228 94 -59 0 -100 -6
-135 -19z"/>
<path d="M18504 4071 c-105 -48 -153 -195 -98 -302 22 -44 84 -96 168 -141
145 -78 185 -132 149 -205 -10 -21 -34 -48 -53 -61 -29 -20 -45 -23 -92 -20
-53 4 -74 13 -154 73 -10 7 -22 0 -43 -25 -17 -19 -30 -40 -31 -47 0 -20 81
-82 131 -98 76 -25 171 -21 235 10 126 61 170 219 94 338 -28 44 -40 53 -237
171 -86 51 -106 125 -49 182 29 29 41 34 83 34 50 0 95 -21 144 -66 l25 -24
40 41 39 41 -40 35 c-93 81 -217 107 -311 64z"/>
<path d="M20975 4076 c-157 -51 -271 -186 -296 -349 -38 -240 131 -472 359
-495 163 -17 286 23 381 123 74 78 112 164 118 269 10 145 -29 249 -128 348
-87 88 -147 112 -284 115 -71 2 -124 -2 -150 -11z m238 -112 c61 -20 135 -88
172 -155 37 -68 46 -180 21 -255 -26 -78 -82 -144 -156 -182 -61 -32 -70 -34
-150 -30 -119 4 -196 47 -256 139 -134 210 14 499 257 499 36 0 86 -7 112 -16z"/>
<path d="M7349 3943 c32 -70 108 -241 170 -379 l112 -251 -79 -179 -78 -179
59 -3 c33 -2 61 -1 64 2 3 3 422 951 478 1084 l14 32 -63 0 -64 0 -133 -305
c-73 -168 -134 -303 -136 -302 -2 2 -64 138 -138 303 l-134 299 -65 3 -65 3
58 -128z"/>
<path d="M14670 3818 c0 -335 17 -412 105 -500 63 -62 115 -81 237 -86 139 -5
199 12 273 79 98 90 115 166 115 517 l0 242 -60 0 -60 0 0 -255 c0 -141 -5
-276 -11 -303 -13 -61 -66 -127 -123 -153 -52 -23 -162 -25 -214 -4 -20 9 -54
33 -75 53 -61 59 -67 96 -67 399 l0 263 -60 0 -60 0 0 -252z"/>
<path d="M16140 3655 l0 -415 55 0 55 0 0 415 0 415 -55 0 -55 0 0 -415z"/>
<path d="M4820 3660 l0 -50 215 0 215 0 0 50 0 50 -215 0 -215 0 0 -50z"/>
<path d="M21785 3395 c-31 -30 -35 -101 -7 -134 36 -44 125 -43 157 1 24 36
20 104 -10 133 -34 35 -106 35 -140 0z"/>
</g>
</svg>
