<?xml version="1.0" standalone="no"?>
<!DOCTYPE svg PUBLIC "-//W3C//DTD SVG 20010904//EN"
 "http://www.w3.org/TR/2001/REC-SVG-20010904/DTD/svg10.dtd">
<svg version="1.0" xmlns="http://www.w3.org/2000/svg"
 width="64.000000pt" height="64.000000pt" viewBox="0 0 64.000000 64.000000"
 preserveAspectRatio="xMidYMid meet">
<metadata>
Created by potrace 1.15, written by Peter Selinger 2001-2017
</metadata>
<g transform="translate(0.000000,64.000000) scale(0.100000,-0.100000)"
fill="#000000" stroke="none">
<path d="M1 433 c1 -115 3 -201 6 -191 5 21 32 32 38 15 2 -6 6 -25 10 -42 9
-41 44 -78 61 -64 17 14 24 9 74 -56 24 -31 40 -61 37 -69 -3 -8 -21 -16 -39
-19 -18 -2 76 -5 210 -5 l242 -2 -1 208 c-1 114 -3 200 -6 190 -5 -21 -32 -32
-38 -15 -2 6 -6 26 -10 42 -9 41 -44 78 -61 64 -17 -14 -24 -9 -74 56 -24 31
-40 61 -37 69 3 8 21 16 39 19 18 2 -76 5 -209 5 l-243 2 1 -207z m343 131 c9
-8 16 -24 16 -34 0 -12 13 -25 34 -35 43 -20 62 -58 40 -80 -16 -16 -26 -13
-56 13 -17 14 -18 12 -18 -31 0 -43 2 -48 33 -60 41 -18 57 -37 63 -79 9 -52
-17 -103 -59 -119 -26 -9 -37 -20 -41 -39 -9 -49 -63 -49 -72 -1 -4 18 -17 31
-45 43 -39 17 -65 57 -55 85 9 22 44 15 62 -12 25 -38 34 -30 34 29 0 51 -2
54 -31 66 -86 36 -90 149 -8 187 22 10 39 25 39 35 0 17 25 48 40 48 5 0 16
-7 24 -16z"/>
</g>
</svg>
